<?xml version="1.0" encoding="UTF-8" standalone="no"?>
<!-- Created with Inkscape (http://www.inkscape.org/) -->

<svg
   width="158.1321mm"
   height="97.668739mm"
   viewBox="0 0 158.1321 97.668739"
   version="1.1"
   id="svg1"
   inkscape:version="1.4 (86a8ad7, 2024-10-11)"
   sodipodi:docname="logo.svg"
   xmlns:inkscape="http://www.inkscape.org/namespaces/inkscape"
   xmlns:sodipodi="http://sodipodi.sourceforge.net/DTD/sodipodi-0.dtd"
   xmlns="http://www.w3.org/2000/svg"
   xmlns:svg="http://www.w3.org/2000/svg">
  <sodipodi:namedview
     id="namedview1"
     pagecolor="#ffffff"
     bordercolor="#666666"
     borderopacity="1.0"
     inkscape:showpageshadow="2"
     inkscape:pageopacity="0.0"
     inkscape:pagecheckerboard="0"
     inkscape:deskcolor="#d1d1d1"
     inkscape:document-units="mm"
     inkscape:zoom="1.44"
     inkscape:cx="260.41667"
     inkscape:cy="322.56944"
     inkscape:window-width="2293"
     inkscape:window-height="1747"
     inkscape:window-x="3647"
     inkscape:window-y="235"
     inkscape:window-maximized="0"
     inkscape:current-layer="layer1"
     showguides="true">
    <sodipodi:guide
       position="43.471169,29.594179"
       orientation="0,-1"
       id="guide21"
       inkscape:locked="false" />
  </sodipodi:namedview>
  <defs
     id="defs1">
    <filter
       inkscape:menu="Shadows and Glows"
       inkscape:menu-tooltip="Cut out, add inner shadow and colorize some parts of an image"
       style="color-interpolation-filters:sRGB"
       inkscape:label="Emergence"
       id="filter29"
       x="-0.37376314"
       y="-2.4809895"
       width="1.8167315"
       height="6.103034">
      <feColorMatrix
         values="0 0 0 0 0 0 0 0 0 0 0 0 0 0 0 0.21 0.72 0.07 0 0 "
         result="result1"
         id="feColorMatrix24" />
      <feColorMatrix
         values="1 0 0 0 0 0 1 0 0 0 0 0 1 0 0 0 0 0 2 0 "
         result="result9"
         id="feColorMatrix25" />
      <feComposite
         in2="result9"
         in="SourceGraphic"
         operator="in"
         result="result4"
         id="feComposite25" />
      <feFlood
         result="result2"
         flood-color="rgb(0,0,0)"
         id="feFlood25" />
      <feComposite
         in2="result9"
         operator="in"
         result="result10"
         id="feComposite26" />
      <feComposite
         in2="result4"
         operator="atop"
         id="feComposite27" />
      <feGaussianBlur
         stdDeviation="6.751 21.986"
         result="result8"
         id="feGaussianBlur27" />
      <feOffset
         dx="3"
         dy="3"
         result="result3"
         in="result8"
         id="feOffset27" />
      <feFlood
         flood-opacity="1"
         flood-color="rgb(219,173,62)"
         result="result5"
         id="feFlood27" />
      <feMerge
         result="result6"
         id="feMerge29">
        <feMergeNode
           in="result5"
           id="feMergeNode27" />
        <feMergeNode
           in="result3"
           id="feMergeNode28" />
        <feMergeNode
           in="result4"
           id="feMergeNode29" />
      </feMerge>
      <feComposite
         in2="SourceGraphic"
         operator="in"
         result="result7"
         id="feComposite29" />
    </filter>
  </defs>
  <g
     inkscape:label="Layer 1"
     inkscape:groupmode="layer"
     id="layer1"
     transform="translate(-25.049129,-46.578209)">
    <rect
       id="rect1"
       width="63.836899"
       height="63.836899"
       x="104.28719"
       y="-38.365658"
       style="fill:#ffd5d5;stroke:#800000;stroke-width:0.1;stroke-dasharray:1.2, 0.1;stroke-dashoffset:0;stroke-opacity:1"
       transform="rotate(45)"
       inkscape:label="diamond" />
    <path
       id="rect21"
       style="fill:#ececec;stroke:#800000;stroke-width:0.5;stroke-dasharray:0.5, 0.5;stroke-dashoffset:0"
       d="m 133.71294,91.450817 c 11.94918,-14.104449 34.13801,-10.782018 46.79257,-24.366253 l -0.0773,47.489736 -61.85751,0.18374 c 9.12087,-6.70602 9.30079,-16.547113 15.14224,-23.307223 z"
       sodipodi:nodetypes="ccccc" />
    <text
       xml:space="preserve"
       style="font-size:13.3357px;line-height:1.25;font-family:'Source Han Serif HC VF';-inkscape-font-specification:'Source Han Serif HC VF';stroke-width:0.333391"
       x="116.89505"
       y="90.129082"
       id="text4"><tspan
         sodipodi:role="line"
         id="tspan4"
         style="stroke-width:0.333391"
         x="116.89505"
         y="90.129082">の</tspan></text>
    <text
       xml:space="preserve"
       style="font-size:10.5833px;line-height:1.25;font-family:'Source Han Serif HC VF';-inkscape-font-specification:'Source Han Serif HC VF';stroke-width:0.264583"
       x="100.75362"
       y="158.14493"
       id="text5"><tspan
         sodipodi:role="line"
         id="tspan5"
         style="stroke-width:0.264583"
         x="100.75362"
         y="158.14493" /></text>
    <rect
       id="rect7"
       width="23.594"
       height="23.594204"
       x="28.217388"
       y="68.659241"
       style="fill:#1a1a1a;stroke:#800000;stroke-width:0.8;stroke-dasharray:none;stroke-opacity:1" />
    <text
       xml:space="preserve"
       style="font-size:10.5833px;line-height:1.25;font-family:DFKai-SB;-inkscape-font-specification:DFKai-SB;stroke-width:0.264583"
       x="158.14493"
       y="155.59419"
       id="text6"><tspan
         sodipodi:role="line"
         id="tspan6"
         style="stroke-width:0.264583"
         x="158.14493"
         y="155.59419" /></text>
    <text
       xml:space="preserve"
       style="font-size:20.7328px;line-height:1.25;font-family:'Source Han Serif HC VF';-inkscape-font-specification:'Source Han Serif HC VF';fill:#ffffff;stroke-width:0.51832"
       x="28.103577"
       y="91.663124"
       id="text1"
       transform="scale(1.04331,0.95848789)"><tspan
         sodipodi:role="line"
         id="tspan1"
         style="fill:#ffffff;stroke-width:0.51832"
         x="28.103577"
         y="91.663124">現</tspan></text>
    <rect
       id="rect8"
       width="23.594204"
       height="23.594204"
       x="50.310093"
       y="90.684166"
       style="fill:#1a1a1a;stroke:#800000;stroke-width:0.8;stroke-dasharray:none" />
    <text
       xml:space="preserve"
       style="font-size:20.7328px;line-height:1.25;font-family:'Source Han Serif HC VF';-inkscape-font-specification:'Source Han Serif HC VF';fill:#ffffff;stroke-width:0.51832"
       x="48.992085"
       y="114.63671"
       id="text2"
       transform="scale(1.04331,0.95848789)"><tspan
         sodipodi:role="line"
         id="tspan2"
         style="fill:#ffffff;stroke-width:0.51832"
         x="48.992085"
         y="114.63671">代</tspan></text>
    <path
       d="m 109.41095,79.294492 -1.93476,-0.91778 -0.14883,-0.44648 -0.47129,-0.17363 q -0.14883,-0.27286 -0.55811,-0.58291 -0.40927,-0.31006 -0.64492,-0.66973 -0.23564,-0.35967 -0.23564,-0.74414 0,-0.38447 0,-0.83096 l 0.32246,-0.76894 0.64492,-0.14883 q 0.32246,0.32246 0.63252,0.62011 0.31006,0.29766 0.71934,0.44649 0.40927,0.14883 0.79375,0.29766 0.38447,0.14882 0.88056,0.14882 l 0.17364,0.74414 1.73632,0.47129 0.19844,0.57051 -0.66972,1.98438 z m -12.154314,-0.17364 -0.818555,-0.74414 v -1.33945 q 0.471289,0.12402 0.806153,-0.0248 0.334863,-0.14882 0.644922,-0.28525 0.310058,-0.13643 0.632519,-0.35967 0.322461,-0.22324 0.644922,-0.5457 l 1.934773,-2.1084 v -0.59531 h -1.116217 l -1.785939,0.29765 -0.471289,-0.17363 -1.289844,0.47129 -0.620117,-0.29766 -0.148828,-0.62011 0.620117,-0.89297 q 0.471289,-0.44649 1.116211,-0.59531 0.644922,-0.14883 1.364258,-0.23565 0.719331,-0.0868 1.451078,-0.14883 0.73173,-0.062 1.20303,-0.38447 l 0.14883,-0.44648 q -0.14883,-0.29766 -0.38447,-0.29766 -0.23566,0 -0.4837,0 -0.24805,0 -0.48369,0 -0.235647,0 -0.409277,0 l -0.496098,0.14883 -0.471289,-0.14883 -0.644922,0.14883 -0.322461,-0.89297 0.818555,-0.59531 v -0.62012 q -0.322461,-0.47129 -0.644922,-0.83096 -0.322461,-0.35967 -0.396875,-0.81855 -0.07441,-0.45889 -0.310059,-0.90537 -0.235644,-0.44649 -0.08682,-1.06661 l 0.620117,-0.29765 v -0.29766 q 0.322461,-0.14883 0.570508,-0.37207 0.248047,-0.22324 0.644922,-0.22324 0.396874,0 0.719344,-0.16123 0.322457,-0.16123 0.644917,-0.16123 v -0.29766 l -0.644917,-0.29765 -2.406063,0.74414 q -0.148828,-0.14883 -0.322461,-0.29766 -0.173633,-0.14883 -0.173633,-0.38447 0,-0.23565 0,-0.45889 0,-0.22324 0,-0.49609 l 0.198438,-0.32246 h 0.297656 v -0.29766 q 0.471289,-0.29766 1.116211,-0.44648 0.644922,-0.14883 1.128622,-0.44649 0.483687,-0.29766 0.967377,-0.75654 0.4837,-0.45889 1.10382,-0.45889 l 0.81855,1.0418 h 0.79376 l 1.76114,-0.44649 0.32246,-1.21543 0.96738,-0.14882 1.43867,1.36425 0.79375,-0.12402 2.0836,0.44648 v 1.48829 h -0.64492 l -3.19981,-0.12403 -0.62012,1.33946 q 0.47129,-0.17364 0.95498,-0.0124 0.48369,0.16123 1.0294,0.0868 0.5457,-0.0744 0.95498,0.22324 0.40928,0.29766 0.70693,0.62012 l 0.66973,1.33945 q -0.34727,0.29766 -0.34727,0.68213 0,0.38447 -0.23564,0.60772 -0.23565,0.22324 -0.5457,0.5209 -0.31006,0.29765 -0.5085,0.59531 -0.14883,0.14883 -0.38447,0.23564 -0.23565,0.0868 -0.47129,0.16123 -0.23565,0.0744 -0.48369,0.0744 -0.24805,0 -0.57051,0 l -0.14883,-0.59532 -2.08359,-0.17363 -1.14102,0.29766 -0.14883,0.91777 q 0.34727,0.29766 0.73174,0.29766 0.38447,0 0.79375,0 0.40928,0 0.81856,0 0.40927,0 0.88056,0 l 0.62012,-0.14883 0.49609,1.81074 h -0.96738 l -1.28984,-0.29765 -1.93477,0.44648 -0.29766,1.0666 q 0.14883,0.12402 0.32247,0.21084 0.17363,0.0868 0.32246,0.0868 0.14882,0 0.38447,0 0.23564,0 0.40928,0 l 1.76113,-0.29766 0.79375,-0.47129 1.11621,0.32246 0.81856,-0.32246 1.28984,0.32246 q 0,0.27285 0.0744,0.5085 0.0744,0.23564 0.23565,0.38447 0.16123,0.14883 0.23564,0.37207 0.0744,0.22324 0.0744,0.54571 l -0.96739,0.27285 -2.23242,-0.27285 -4.81211,0.44648 q -0.14883,0.59531 -0.38447,1.20303 -0.23566,0.60771 -0.55812,1.20303 -0.32246,0.59531 -0.71933,1.12861 -0.39688,0.5333 -0.89298,0.97978 z m -10.41797,-4.96093 -0.471289,-0.91778 1.612305,-1.78594 3.844727,-2.10839 0.942578,0.29765 v 1.0666 l -0.942578,1.19063 -2.257227,1.66191 q -0.471289,-0.14883 -0.719336,0.0868 -0.248047,0.23564 -0.558105,0.37207 -0.310059,0.13643 -0.719336,0.13643 -0.409278,0 -0.731739,0 z m 2.728516,-6.62286 -0.471289,-0.29765 -0.148828,-1.21543 q 0.297656,-0.29766 0.694531,-0.60772 0.396875,-0.31006 0.880567,-0.44648 0.483691,-0.13643 0.967383,-0.22324 0.483691,-0.0868 0.95498,-0.23565 l 1.289844,0.32246 0.148828,0.89297 q -0.471289,0.29766 -0.95498,0.66973 -0.483692,0.37207 -1.041797,0.5333 -0.558106,0.16123 -1.128614,0.29765 -0.570508,0.13643 -1.190625,0.31006 z m 12.154308,-0.17363 0.17363,-0.12402 -1.14102,-0.32246 -0.768947,0.32246 -0.17363,0.44648 h 1.289847 z m -0.96739,-1.93477 0.34727,-0.76894 -0.81856,-0.44649 -0.793757,0.29766 -0.173628,0.44649 0.496098,0.59531 h 0.793747 z m 7.06935,-0.32246 0.14883,-0.89297 q -0.14883,-0.14882 -0.32246,-0.31005 -0.17363,-0.16123 -0.40928,-0.22325 -0.23564,-0.062 -0.38447,-0.062 -0.14883,0 -0.47129,0 l -2.08359,0.29766 -0.17364,0.44648 0.32247,0.91778 h 3.2246 z m -16.966424,-1.19062 q -0.322461,-0.17363 -0.396875,-0.47129 -0.07441,-0.29766 -0.173633,-0.5209 -0.09922,-0.22324 -0.09922,-0.5209 0,-0.29765 0,-0.59531 l 0.496094,-0.59531 3.695899,-0.44649 0.79375,0.57051 v 1.21543 l -0.644922,0.74414 z m 11.831854,-1.98438 1.28985,-0.12402 0.62011,0.12402 0.34727,-1.04179 -1.31465,-0.12403 -1.24024,0.57051 -0.34727,0.76895 h 0.49609 z"
       id="path3"
       style="fill:#1a1a1a;stroke-width:0.0248047" />
    <path
       d="m 97.00859,104.64487 -2.306836,-0.27285 q -0.198438,-0.27285 -0.359668,-0.54571 -0.161231,-0.27285 -0.235645,-0.5457 -0.07441,-0.27285 -0.07441,-0.60771 0,-0.33487 0,-0.60772 h -0.173633 0.644922 l 2.182813,0.12402 q 0.322461,-0.12402 0.818555,-0.19843 0.496094,-0.0744 0.892969,-0.21084 0.396875,-0.13643 0.74414,-0.27285 0.347266,-0.13643 0.669726,-0.5333 0.347267,-0.42168 0.582907,-0.96739 0.23565,-0.545694 0.39688,-1.091391 0.16123,-0.545707 0.26045,-1.091407 0.0992,-0.5457 0.0992,-1.09141 -0.19842,-0.27285 -0.59529,-0.27285 -0.39688,0 -0.818557,0 -0.421681,0 -0.843361,0 -0.421679,0 -0.74414,0 l -1.314649,0.14883 v 0.12402 l -1.984375,0.27285 v 0.14883 q -0.818555,0 -1.63711,0.19844 -0.818554,0.19844 -1.575097,0.47129 -0.756543,0.27285 -1.575098,0.40928 -0.818555,0.13642 -1.63711,0.409267 l -0.173633,-1.215427 0.322461,-0.69453 q 0.992188,-0.5457 2.232423,-0.60771 1.240234,-0.062 2.468066,-0.33487 1.227832,-0.27285 2.393653,-0.48369 1.16582,-0.21084 2.480469,-0.21084 v -0.27285 l -1.314649,-0.81855 v -0.54571 l 0.173633,-0.27285 h 0.644918 l 0.669727,0.12403 v -0.27286 l 2.480469,-1.0914 v -0.27285 l 0.66971,-0.54571 h 0.14884 v -0.27285 h -2.480465 q -0.669726,0.14883 -1.16582,0.34727 -0.496094,0.19843 -0.992188,0.40927 -0.496093,0.21084 -0.892969,0.54571 -0.396875,0.33486 -1.066601,0.33486 -0.173633,-0.12402 -0.347266,-0.33486 -0.173633,-0.21084 -0.248047,-0.40928 -0.07441,-0.19844 -0.16123,-0.40928 -0.08682,-0.21084 -0.08682,-0.48369 l 0.322461,-0.81855 q 0.992188,-0.27285 1.984376,-0.40928 0.992187,-0.13643 1.996777,-0.19844 1.004585,-0.062 2.158012,-0.062 1.1534,0 2.14559,0 l 1.81075,0.5457 0.4961,0.94258 -0.17364,0.5457 -0.66972,0.14883 v 0.27285 l -1.46349,1.09141 -0.49609,0.39688 -0.9922,0.42168 v 0.5457 l 0.32247,0.5457 q 0.99219,0.14883 2.0712,0.21084 1.07901,0.062 2.14562,0.062 1.0666,0 2.05879,0.21084 0.99218,0.21084 1.98437,0.33487 v 0.14882 q 0.4961,0 0.90537,0 0.40928,0 0.83096,0.062 0.42168,0.062 0.81856,0.13642 0.39687,0.0744 0.74414,0.19844 v 0.27285 h -0.34727 v 0.69453 h 0.17363 v 0.12403 l -0.64492,0.27285 v 0.42168 h 0.14883 l -1.66191,0.12402 -0.96739,-0.12402 v -0.14883 l -2.48047,-0.27285 v -0.27285 l -3.1502,-0.54571 h -0.96739 q -0.34727,0.69453 -0.5085,1.43868 -0.16123,0.744137 -0.39688,1.500671 -0.23564,0.756537 -0.49609,1.438667 -0.26045,0.68213 -0.73175,1.35186 l -0.52087,0.14882 -0.32247,0.94258 h -0.322467 l -0.17363,0.42168 q -0.32246,0.12403 -0.57051,0.26045 -0.248047,0.13643 -0.508496,0.27285 -0.260449,0.13643 -0.595313,0.13643 -0.334863,0 -0.657324,0 l -0.148832,-0.12402 z m 8.23519,-7.639838 v -0.12402 h 0.34726 v -0.27285 h -0.66973 v 0.39687 l 0.17364,0.14883 z m 1.33945,0 -0.66973,-0.12402 v 0.27285 h 0.4961 z m -16.172688,-3.96875 -0.173632,-0.39687 -1.339454,-0.42168 -0.148828,-1.36426 0.347266,-1.21543 -1.165821,-0.27285 v -0.81855 h 0.322461 l 0.173633,-0.54571 0.669727,-0.5457 7.391798,-1.51309 v -0.5457 q -0.148829,-0.12402 -0.235645,-0.26045 -0.08682,-0.13643 -0.08682,-0.27285 0,-0.13643 0,-0.34727 0,-0.21084 0,-0.33486 l 0.992187,-0.27285 1.314649,0.39687 0.322461,1.63711 q 1.686716,0 3.175016,0 1.48829,0 2.96418,0.27285 1.47588,0.27286 2.87734,0.54571 1.40147,0.27285 2.71611,0.81855 l 0.32247,0.81856 -0.96739,2.87734 -1.33945,0.12402 q -0.32246,-0.12402 -0.48369,-0.33486 -0.16123,-0.21084 -0.23565,-0.48369 -0.0744,-0.27285 -0.24804,-0.5457 -0.17364,-0.27285 -0.17364,-0.54571 h 0.4961 v -0.39687 l -0.66973,-0.96738 -0.99219,-0.27286 v -0.12402 l -1.98437,-0.14883 v -0.12402 h -0.64493 v -0.27285 h -0.4961 l -0.4961,0.12402 -0.81856,-0.12402 v 0.12402 h -0.32246 v -0.27285 h -0.32246 v 0.14883 h -0.34727 l -0.4961,-0.14883 v 0.14883 l -0.992188,0.12402 -0.843359,-0.12402 -4.936134,0.66972 v 0.27286 l -2.654101,0.69453 v 0.39687 q 0.173632,0.27285 0.248046,0.48369 0.07442,0.21084 0.07442,0.48369 0,0.27286 0,0.54571 0,0.27285 0,0.5457 l -0.967383,1.63711 z"
       id="path4"
       style="fill:#1a1a1a;stroke-width:0.0248047" />
    <path
       d="m 97.074736,129.72241 v -0.17363 l -0.768945,-0.44649 -0.644922,-2.1084 0.347266,-1.98437 q -0.173633,-0.29766 -0.334864,-0.45889 -0.16123,-0.16123 -0.16123,-0.45888 0,-0.29766 -0.148828,-0.54571 -0.148828,-0.24804 0,-0.5209 l 0.148828,-0.47128 -0.148828,-0.62012 q 0.148828,-0.14883 0.148828,-0.29766 0,-0.14883 0.248047,-0.14883 0.248047,0 0.396875,0 0.148828,0 0.272851,0 v -0.29765 q 0.793751,-0.17364 1.649512,-0.39688 0.855762,-0.22324 1.699117,-0.44648 0.843367,-0.22324 1.711537,-0.22324 0.86817,0 1.83555,0 l 1.36427,0.59531 q 0.32246,0.62012 0.47129,1.16582 0.14884,0.5457 0.14884,1.22783 0,0.68213 0,1.36426 0,0.68213 0,1.30225 l -0.4465,2.85253 0.14883,0.59532 h -0.49609 l -0.44649,0.49609 -0.32246,-0.62012 h -4.192017 l -0.471287,0.12403 v -0.29766 H 98.78626 Z m 3.745514,-0.91777 -0.19844,-0.17364 -0.12403,0.29766 h 0.12403 z m 0.44648,-0.17364 -0.14882,-0.14882 -0.14883,0.32246 h 0.14883 z m 1.09142,0 -0.17364,-0.14882 -0.12402,0.32246 h 0.12402 z m 0.62012,-1.63711 q 0.14882,-0.14882 0.31006,-0.37207 0.16123,-0.22324 0.16123,-0.5333 0,-0.31005 0,-0.62011 0,-0.31006 0,-0.60772 h -0.91778 l -1.26505,0.14883 v -0.14883 h -0.94258 l -2.455664,0.62012 -0.173632,1.83555 h 2.009179 z m 0,-2.28203 -0.14883,-0.17363 -0.14883,0.32246 h 0.14883 z m 0.47129,-0.91777 v -1.0666 l -0.12403,-0.64492 -1.90997,-0.29766 -1.562697,0.14883 v 0.29765 l -0.595317,-0.14882 -0.17363,0.47129 -0.917773,0.47128 -0.173633,0.76895 h 0.79375 l 4.19201,-0.49609 v 0.49609 z m -12.575996,-0.94258 -0.620117,-0.29765 q 0,-0.32247 -0.223243,-0.60772 -0.223242,-0.28525 -0.223242,-0.60771 0,-0.32247 0,-0.70694 0,-0.38447 0,-0.65732 l 1.835547,-0.4961 v -0.29765 l 4.365626,-1.21543 v -1.09141 l -0.173633,-0.57051 0.173633,-0.79375 -0.347266,-0.76894 h 0.173633 v -0.29766 h -0.322461 l -1.711524,0.62012 -0.297656,-1.0666 0.471289,-1.0666 q 0.471289,0 0.930176,-0.14883 0.458887,-0.14883 0.930176,-0.32246 0.471289,-0.17364 0.930176,-0.47129 0.458887,-0.29766 0.930176,-0.44649 v -0.47129 l -0.124024,-0.62011 -0.496094,-0.12403 v -1.24023 l 1.26504,-0.32246 0.91777,0.32246 v 0.29765 l 0.446487,0.17364 0.322457,1.66191 -0.173627,0.47129 h 0.768947 l 3.00138,-0.14883 1.38907,0.44649 v 0.44648 h 0.4465 l 0.14882,0.62012 0.34727,0.17363 0.12402,0.59531 -0.76894,0.17364 q -0.29767,-0.17364 -0.68214,-0.24805 -0.38447,-0.0744 -0.78135,-0.0744 -0.39688,0 -0.78136,0 -0.38447,0 -0.88057,0 v 0.32246 l 0.79376,0.59531 v 0.91777 l -0.62012,1.66192 q 1.26504,0.17363 2.5797,0.33486 1.31466,0.16123 2.55489,0.38447 1.24023,0.22325 2.48047,0.31006 1.24023,0.0868 2.48047,0.35967 h -0.14883 v 0.32246 l 0.47129,0.17363 1.24023,-0.17363 0.17364,0.47129 h -0.17364 v -0.29766 h -0.32246 l -0.12402,0.29766 h -0.17363 v -0.29766 h -0.32246 l -0.44649,0.29766 v 0.29766 l 1.38906,0.14882 0.17364,-0.14882 -0.4961,0.32246 v 0.27285 h 0.32246 v 0.17363 l -0.32246,0.14883 -0.12402,0.44648 q -0.32246,0.32247 -0.79375,0.32247 -0.47129,0 -0.86816,0 -0.39688,0 -0.85577,0 -0.45888,0 -0.90537,0 l -0.94258,-0.32247 -0.32246,-0.44648 q -0.76894,-0.14883 -1.38906,-0.37207 -0.62012,-0.22324 -1.32705,-0.31006 -0.70693,-0.0868 -1.40148,-0.31006 -0.69453,-0.22324 -1.43868,-0.0992 v -0.29765 h -0.34726 q -1.21544,0.17363 -2.38127,0.23564 -1.165814,0.062 -2.344041,0.22324 -1.178223,0.16123 -2.269629,0.47129 -1.091406,0.31006 -2.182813,0.75655 v 0.14882 h -0.595312 l -0.173633,0.47129 -1.240235,0.59532 -0.148828,0.47129 z m 10.095516,-0.91777 v -0.27285 h -0.34727 v 0.27285 z m 0.91777,-0.27285 -0.62012,-0.17364 v 0.29766 h 0.4961 z m 11.36058,-1.68672 -0.62012,-0.17364 v 0.32247 h 0.44649 z m 0.32246,-0.91778 -0.17363,-0.17363 -0.14883,0.17363 0.14883,0.12403 z m -15.403747,-1.71152 2.331637,-0.91777 0.62013,-2.6045 h -1.265047 v -0.29765 h -0.595317 l -3.249411,0.76894 v 0.29766 l 1.21543,0.29766 q 0,0.34726 0.235644,0.5581 0.235645,0.21084 0.235645,0.59531 0,0.38448 0,0.75655 0,0.37207 0,0.71933 h 0.297656 z"
       id="path5"
       style="fill:#1a1a1a;stroke-width:0.0248047" />
    <text
       xml:space="preserve"
       style="font-size:3.49634px;line-height:1.25;font-family:Meiryo;-inkscape-font-specification:Meiryo;stroke-width:0.0364205"
       x="149.09558"
       y="118.60007"
       id="text7"><tspan
         sodipodi:role="line"
         id="tspan3"
         style="font-style:normal;font-variant:normal;font-weight:normal;font-stretch:normal;font-family:'Source Han Serif HC VF';-inkscape-font-specification:'Source Han Serif HC VF';stroke-width:0.0364205"
         x="149.09558"
         y="118.60007">ゆ    ら    い</tspan></text>
    <text
       xml:space="preserve"
       style="font-style:normal;font-variant:normal;font-weight:normal;font-stretch:normal;font-size:3.02218px;line-height:1.25;font-family:'Source Han Serif HC VF';-inkscape-font-specification:'Source Han Serif HC VF';stroke-width:0.031481"
       x="120.1273"
       y="94.080238"
       id="text8"><tspan
         sodipodi:role="line"
         id="tspan7"
         style="font-style:normal;font-variant:normal;font-weight:normal;font-stretch:normal;font-family:'Source Han Serif HC VF';-inkscape-font-specification:'Source Han Serif HC VF';stroke-width:0.031481"
         x="120.1273"
         y="94.080238">的·嘅</tspan></text>
    <text
       xml:space="preserve"
       style="font-style:normal;font-variant:normal;font-weight:bold;font-stretch:normal;font-size:5.29167px;line-height:1.25;font-family:Constantia;-inkscape-font-specification:'Constantia Bold';stroke-width:0.264583"
       x="43.555241"
       y="143.08807"
       id="text9"><tspan
         sodipodi:role="line"
         id="tspan8"
         style="font-style:italic;font-variant:normal;font-weight:normal;font-stretch:normal;font-size:5.29167px;font-family:Caladea;-inkscape-font-specification:'Caladea Italic';font-variant-ligatures:normal;font-variant-caps:normal;font-variant-numeric:normal;font-variant-east-asian:normal;stroke-width:0.264583"
         x="43.555241"
         y="143.08807">The Etymology of Modern Pronunciations of Chinese Characters</tspan></text>
    <rect
       style="fill:#000000;stroke-width:0.123576"
       id="rect9"
       width="17.060783"
       height="0.77405483"
       x="25.049129"
       y="141.42139"
       rx="0.083908983"
       ry="0.25189552" />
    <text
       xml:space="preserve"
       style="font-style:normal;font-variant:normal;font-weight:bold;font-stretch:normal;font-size:22.5778px;line-height:1.25;font-family:'LXGW WenKai Mono TC';-inkscape-font-specification:'LXGW WenKai Mono TC Bold';fill:#550000;stroke-width:0;stroke-dasharray:none"
       x="131.50354"
       y="110.39672"
       id="text21-5"><tspan
         sodipodi:role="line"
         id="tspan21-2"
         style="font-style:normal;font-variant:normal;font-weight:bold;font-stretch:normal;font-size:22.5778px;font-family:'LXGW WenKai Mono TC';-inkscape-font-specification:'LXGW WenKai Mono TC Bold';fill:#550000;stroke-width:0;stroke-dasharray:none"
         x="131.50354"
         y="110.39672">來</tspan></text>
    <text
       xml:space="preserve"
       style="font-style:normal;font-variant:normal;font-weight:bold;font-stretch:normal;font-size:25.4px;line-height:1.25;font-family:'LXGW WenKai Mono TC';-inkscape-font-specification:'LXGW WenKai Mono TC Bold';fill:#550000;stroke-width:0;stroke-dasharray:none"
       x="153.65437"
       y="101.54654"
       id="text21-4"><tspan
         sodipodi:role="line"
         id="tspan21-23"
         style="font-style:normal;font-variant:normal;font-weight:bold;font-stretch:normal;font-size:25.4px;font-family:'LXGW WenKai Mono TC';-inkscape-font-specification:'LXGW WenKai Mono TC Bold';fill:#550000;stroke-width:0;stroke-dasharray:none"
         x="153.65437"
         y="101.54654">源</tspan></text>
  </g>
</svg>
