<?xml version="1.0" encoding="UTF-8" standalone="no"?>
<!-- Created with Inkscape (http://www.inkscape.org/) -->

<svg
   width="158.1321mm"
   height="97.668739mm"
   viewBox="0 0 158.1321 97.668739"
   version="1.1"
   id="svg1"
   inkscape:version="1.4 (86a8ad7, 2024-10-11)"
   sodipodi:docname="logo-portable.svg"
   xmlns:inkscape="http://www.inkscape.org/namespaces/inkscape"
   xmlns:sodipodi="http://sodipodi.sourceforge.net/DTD/sodipodi-0.dtd"
   xmlns="http://www.w3.org/2000/svg"
   xmlns:svg="http://www.w3.org/2000/svg">
  <sodipodi:namedview
     id="namedview1"
     pagecolor="#ffffff"
     bordercolor="#666666"
     borderopacity="1.0"
     inkscape:showpageshadow="2"
     inkscape:pageopacity="0.0"
     inkscape:pagecheckerboard="0"
     inkscape:deskcolor="#d1d1d1"
     inkscape:document-units="mm"
     inkscape:zoom="1.44"
     inkscape:cx="260.41667"
     inkscape:cy="322.56944"
     inkscape:window-width="2293"
     inkscape:window-height="1747"
     inkscape:window-x="3647"
     inkscape:window-y="235"
     inkscape:window-maximized="0"
     inkscape:current-layer="layer1"
     showguides="true">
    <sodipodi:guide
       position="43.471169,29.594179"
       orientation="0,-1"
       id="guide21"
       inkscape:locked="false" />
  </sodipodi:namedview>
  <defs
     id="defs1">
    <filter
       inkscape:menu="Shadows and Glows"
       inkscape:menu-tooltip="Cut out, add inner shadow and colorize some parts of an image"
       style="color-interpolation-filters:sRGB"
       inkscape:label="Emergence"
       id="filter29"
       x="-0.37376314"
       y="-2.4809895"
       width="1.8167315"
       height="6.103034">
      <feColorMatrix
         values="0 0 0 0 0 0 0 0 0 0 0 0 0 0 0 0.21 0.72 0.07 0 0 "
         result="result1"
         id="feColorMatrix24" />
      <feColorMatrix
         values="1 0 0 0 0 0 1 0 0 0 0 0 1 0 0 0 0 0 2 0 "
         result="result9"
         id="feColorMatrix25" />
      <feComposite
         in2="result9"
         in="SourceGraphic"
         operator="in"
         result="result4"
         id="feComposite25" />
      <feFlood
         result="result2"
         flood-color="rgb(0,0,0)"
         id="feFlood25" />
      <feComposite
         in2="result9"
         operator="in"
         result="result10"
         id="feComposite26" />
      <feComposite
         in2="result4"
         operator="atop"
         id="feComposite27" />
      <feGaussianBlur
         stdDeviation="6.751 21.986"
         result="result8"
         id="feGaussianBlur27" />
      <feOffset
         dx="3"
         dy="3"
         result="result3"
         in="result8"
         id="feOffset27" />
      <feFlood
         flood-opacity="1"
         flood-color="rgb(219,173,62)"
         result="result5"
         id="feFlood27" />
      <feMerge
         result="result6"
         id="feMerge29">
        <feMergeNode
           in="result5"
           id="feMergeNode27" />
        <feMergeNode
           in="result3"
           id="feMergeNode28" />
        <feMergeNode
           in="result4"
           id="feMergeNode29" />
      </feMerge>
      <feComposite
         in2="SourceGraphic"
         operator="in"
         result="result7"
         id="feComposite29" />
    </filter>
  </defs>
  <g
     inkscape:label="Layer 1"
     inkscape:groupmode="layer"
     id="layer1"
     transform="translate(-25.049129,-46.578209)">
    <rect
       id="rect1"
       width="63.836899"
       height="63.836899"
       x="104.28719"
       y="-38.365658"
       style="fill:#ffd5d5;stroke:#800000;stroke-width:0.1;stroke-dasharray:1.2, 0.1;stroke-dashoffset:0;stroke-opacity:1"
       transform="rotate(45)"
       inkscape:label="diamond" />
    <path
       id="rect21"
       style="fill:#ececec;stroke:#800000;stroke-width:0.5;stroke-dasharray:0.5, 0.5;stroke-dashoffset:0"
       d="m 133.71294,91.450817 c 11.94918,-14.104449 34.13801,-10.782018 46.79257,-24.366253 l -0.0773,47.489736 -61.85751,0.18374 c 9.12087,-6.70602 9.30079,-16.547113 15.14224,-23.307223 z"
       sodipodi:nodetypes="ccccc" />
    <path
       d="m 123.04281,89.889039 0.0533,0.306721 c 4.36077,-0.293385 5.74769,-2.560454 5.74769,-4.77418 0,-2.76049 -2.12038,-4.547474 -4.8542,-4.547474 -1.42692,0 -2.80049,0.453414 -3.89402,1.413584 -1.14687,1.013513 -1.77365,2.400426 -1.77365,3.747332 0,1.653627 0.92016,3.053875 1.81366,3.053875 1.36024,0 2.92051,-2.587126 3.46728,-4.174074 0.26671,-0.773471 0.42674,-1.52027 0.42674,-2.147048 0,-0.58677 -0.33339,-1.106863 -0.69346,-1.560277 l -0.45341,0.09335 c 0.25338,0.440078 0.44008,0.813478 0.44008,1.346906 0,0.613442 -0.21337,1.413584 -0.46675,2.053698 -0.54677,1.280227 -1.77365,3.373932 -2.66714,3.373932 -0.53343,0 -1.1202,-0.96017 -1.1202,-2.253733 0,-1.160206 0.52009,-2.240398 1.37358,-3.080547 0.92016,-0.906828 2.22706,-1.42692 3.48061,-1.42692 2.21373,0 3.96071,1.533606 3.96071,3.894024 0,2.427098 -1.57362,4.09406 -4.84086,4.680831 z"
       id="text4"
       style="font-size:13.3357px;line-height:1.25;font-family:'Source Han Serif HC VF';-inkscape-font-specification:'Source Han Serif HC VF';stroke-width:0.333391"
       aria-label="の" />
    <text
       xml:space="preserve"
       style="font-size:10.5833px;line-height:1.25;font-family:'Source Han Serif HC VF';-inkscape-font-specification:'Source Han Serif HC VF';stroke-width:0.264583"
       x="100.75362"
       y="158.14493"
       id="text5"><tspan
         sodipodi:role="line"
         id="tspan5"
         style="stroke-width:0.264583"
         x="100.75362"
         y="158.14493" /></text>
    <rect
       id="rect7"
       width="23.594"
       height="23.594204"
       x="28.217388"
       y="68.659241"
       style="fill:#1a1a1a;stroke:#800000;stroke-width:0.8;stroke-dasharray:none;stroke-opacity:1" />
    <text
       xml:space="preserve"
       style="font-size:10.5833px;line-height:1.25;font-family:DFKai-SB;-inkscape-font-specification:DFKai-SB;stroke-width:0.264583"
       x="158.14493"
       y="155.59419"
       id="text6"><tspan
         sodipodi:role="line"
         id="tspan6"
         style="stroke-width:0.264583"
         x="158.14493"
         y="155.59419" /></text>
    <path
       d="m 37.889458,78.912452 v 0.621984 h 7.795533 v -0.621984 z m 0,3.296515 v 0.601252 h 7.795533 v -0.601252 z m 0,3.358714 v 0.621984 h 7.795533 v -0.621984 z m -8.852905,-9.309027 0.165862,0.601251 h 7.049152 c 0.290259,0 0.497587,-0.103664 0.559785,-0.331725 -0.684182,-0.642716 -1.762287,-1.513494 -1.762287,-1.513494 l -0.953709,1.243968 z m 0.186595,5.784451 0.165862,0.601251 h 6.468634 c 0.269526,0 0.456121,-0.08293 0.51832,-0.310992 -0.559786,-0.621984 -1.534227,-1.472028 -1.534227,-1.472028 l -0.829312,1.181769 z m -0.497587,7.173549 0.704915,1.679357 c 0.207328,-0.0622 0.37319,-0.29026 0.435389,-0.51832 2.881859,-1.3269 5.058803,-2.467204 6.655228,-3.275783 l -0.124397,-0.310992 c -3.213583,1.098839 -6.385702,2.114746 -7.671135,2.425738 z m 3.151385,-12.958 v 12.501878 l 1.326899,-0.435389 V 76.258654 Z m 13.144595,-0.601251 v 11.527436 h 0.207328 c 0.476854,0 1.140304,-0.331724 1.161037,-0.497587 V 76.548913 c 0.414656,-0.103664 0.746381,-0.269526 0.89151,-0.435389 l -1.679357,-1.326899 -0.767113,0.870778 z m -7.857731,0 v 11.734764 h 0.207328 c 0.601251,0 1.140304,-0.331724 1.140304,-0.476854 V 76.258654 h 7.132083 v -0.601251 h -7.028419 l -1.451296,-0.66345 z m 5.266131,10.096873 v 5.908848 c 0,0.932976 0.228061,1.264701 1.534227,1.264701 h 1.451296 c 2.322074,0 2.840394,-0.269527 2.840394,-0.850045 0,-0.248794 -0.0622,-0.414656 -0.456122,-0.580518 l -0.0622,-2.881859 h -0.269527 c -0.22806,1.202502 -0.476854,2.44647 -0.601251,2.798927 -0.0622,0.207328 -0.145129,0.248794 -0.310992,0.269527 -0.145129,0 -0.580518,0 -1.119571,0 h -1.140304 c -0.456121,0 -0.51832,-0.0622 -0.51832,-0.310992 v -4.975872 c 0,-0.165862 0,-0.414656 0,-0.642717 z m -2.96479,0.08293 c -0.373191,3.752637 -1.907418,5.722253 -6.282038,7.152816 l 0.103664,0.310992 c 5.100268,-1.057373 7.173548,-3.10992 7.691868,-7.463808 z"
       id="text1"
       style="font-size:20.7328px;line-height:1.25;font-family:'Source Han Serif HC VF';-inkscape-font-specification:'Source Han Serif HC VF';fill:#ffffff;stroke-width:0.51832"
       transform="scale(1.04331,0.95848789)"
       aria-label="現" />
    <rect
       id="rect8"
       width="23.594204"
       height="23.594204"
       x="50.310093"
       y="90.684166"
       style="fill:#1a1a1a;stroke:#800000;stroke-width:0.8;stroke-dasharray:none" />
    <path
       d="m 63.318449,98.050471 -0.207328,0.165863 c 0.829312,0.642717 1.92815,1.783021 2.301341,2.653796 1.472028,0.80858 2.322073,-2.011079 -2.094013,-2.819659 z m -8.002861,6.489369 0.207328,0.58052 12.875069,-1.4513 c 0.269526,-0.0207 0.476854,-0.16586 0.51832,-0.39392 -0.767114,-0.51832 -1.990349,-1.2647 -1.990349,-1.2647 l -0.870777,1.3269 z m 4.623415,-7.007688 c 0.02073,7.671138 1.451296,14.450758 6.199107,17.788738 1.03664,0.72565 2.322073,1.30617 2.798928,0.62199 0.186595,-0.22806 0.103664,-0.55979 -0.51832,-1.34763 l 0.352457,-3.10992 -0.248793,-0.0622 c -0.29026,0.85004 -0.684183,1.86595 -0.974442,2.38427 -0.14513,0.39392 -0.310992,0.39392 -0.684182,0.0829 -4.312423,-2.77819 -5.473459,-9.26756 -5.431994,-15.508134 0.51832,-0.08293 0.704915,-0.331725 0.746381,-0.580518 z m -6.986954,5.867378 v 12.87507 h 0.269527 c 0.51832,0 1.078105,-0.35246 1.098838,-0.47685 v -12.33602 c 0.37319,-0.0622 0.559786,-0.18659 0.642717,-0.37319 l -1.389098,-0.49759 z m 1.679357,-6.116172 C 53.511835,101.28479 51.542219,105.32768 49.697,107.85709 l 0.290259,0.20732 c 2.425737,-2.2806 4.581949,-5.76371 6.07471,-9.661481 0.476855,0.02073 0.725648,-0.165862 0.787847,-0.393923 z"
       id="text2"
       style="font-size:20.7328px;line-height:1.25;font-family:'Source Han Serif HC VF';-inkscape-font-specification:'Source Han Serif HC VF';fill:#ffffff;stroke-width:0.51832"
       transform="scale(1.04331,0.95848789)"
       aria-label="代" />
    <path
       d="m 109.41095,79.294492 -1.93476,-0.91778 -0.14883,-0.44648 -0.47129,-0.17363 q -0.14883,-0.27286 -0.55811,-0.58291 -0.40927,-0.31006 -0.64492,-0.66973 -0.23564,-0.35967 -0.23564,-0.74414 0,-0.38447 0,-0.83096 l 0.32246,-0.76894 0.64492,-0.14883 q 0.32246,0.32246 0.63252,0.62011 0.31006,0.29766 0.71934,0.44649 0.40927,0.14883 0.79375,0.29766 0.38447,0.14882 0.88056,0.14882 l 0.17364,0.74414 1.73632,0.47129 0.19844,0.57051 -0.66972,1.98438 z m -12.154314,-0.17364 -0.818555,-0.74414 v -1.33945 q 0.471289,0.12402 0.806153,-0.0248 0.334863,-0.14882 0.644922,-0.28525 0.310058,-0.13643 0.632519,-0.35967 0.322461,-0.22324 0.644922,-0.5457 l 1.934773,-2.1084 v -0.59531 h -1.116217 l -1.785939,0.29765 -0.471289,-0.17363 -1.289844,0.47129 -0.620117,-0.29766 -0.148828,-0.62011 0.620117,-0.89297 q 0.471289,-0.44649 1.116211,-0.59531 0.644922,-0.14883 1.364258,-0.23565 0.719331,-0.0868 1.451078,-0.14883 0.73173,-0.062 1.20303,-0.38447 l 0.14883,-0.44648 q -0.14883,-0.29766 -0.38447,-0.29766 -0.23566,0 -0.4837,0 -0.24805,0 -0.48369,0 -0.235647,0 -0.409277,0 l -0.496098,0.14883 -0.471289,-0.14883 -0.644922,0.14883 -0.322461,-0.89297 0.818555,-0.59531 v -0.62012 q -0.322461,-0.47129 -0.644922,-0.83096 -0.322461,-0.35967 -0.396875,-0.81855 -0.07441,-0.45889 -0.310059,-0.90537 -0.235644,-0.44649 -0.08682,-1.06661 l 0.620117,-0.29765 v -0.29766 q 0.322461,-0.14883 0.570508,-0.37207 0.248047,-0.22324 0.644922,-0.22324 0.396874,0 0.719344,-0.16123 0.322457,-0.16123 0.644917,-0.16123 v -0.29766 l -0.644917,-0.29765 -2.406063,0.74414 q -0.148828,-0.14883 -0.322461,-0.29766 -0.173633,-0.14883 -0.173633,-0.38447 0,-0.23565 0,-0.45889 0,-0.22324 0,-0.49609 l 0.198438,-0.32246 h 0.297656 v -0.29766 q 0.471289,-0.29766 1.116211,-0.44648 0.644922,-0.14883 1.128622,-0.44649 0.483687,-0.29766 0.967377,-0.75654 0.4837,-0.45889 1.10382,-0.45889 l 0.81855,1.0418 h 0.79376 l 1.76114,-0.44649 0.32246,-1.21543 0.96738,-0.14882 1.43867,1.36425 0.79375,-0.12402 2.0836,0.44648 v 1.48829 h -0.64492 l -3.19981,-0.12403 -0.62012,1.33946 q 0.47129,-0.17364 0.95498,-0.0124 0.48369,0.16123 1.0294,0.0868 0.5457,-0.0744 0.95498,0.22324 0.40928,0.29766 0.70693,0.62012 l 0.66973,1.33945 q -0.34727,0.29766 -0.34727,0.68213 0,0.38447 -0.23564,0.60772 -0.23565,0.22324 -0.5457,0.5209 -0.31006,0.29765 -0.5085,0.59531 -0.14883,0.14883 -0.38447,0.23564 -0.23565,0.0868 -0.47129,0.16123 -0.23565,0.0744 -0.48369,0.0744 -0.24805,0 -0.57051,0 l -0.14883,-0.59532 -2.08359,-0.17363 -1.14102,0.29766 -0.14883,0.91777 q 0.34727,0.29766 0.73174,0.29766 0.38447,0 0.79375,0 0.40928,0 0.81856,0 0.40927,0 0.88056,0 l 0.62012,-0.14883 0.49609,1.81074 h -0.96738 l -1.28984,-0.29765 -1.93477,0.44648 -0.29766,1.0666 q 0.14883,0.12402 0.32247,0.21084 0.17363,0.0868 0.32246,0.0868 0.14882,0 0.38447,0 0.23564,0 0.40928,0 l 1.76113,-0.29766 0.79375,-0.47129 1.11621,0.32246 0.81856,-0.32246 1.28984,0.32246 q 0,0.27285 0.0744,0.5085 0.0744,0.23564 0.23565,0.38447 0.16123,0.14883 0.23564,0.37207 0.0744,0.22324 0.0744,0.54571 l -0.96739,0.27285 -2.23242,-0.27285 -4.81211,0.44648 q -0.14883,0.59531 -0.38447,1.20303 -0.23566,0.60771 -0.55812,1.20303 -0.32246,0.59531 -0.71933,1.12861 -0.39688,0.5333 -0.89298,0.97978 z m -10.41797,-4.96093 -0.471289,-0.91778 1.612305,-1.78594 3.844727,-2.10839 0.942578,0.29765 v 1.0666 l -0.942578,1.19063 -2.257227,1.66191 q -0.471289,-0.14883 -0.719336,0.0868 -0.248047,0.23564 -0.558105,0.37207 -0.310059,0.13643 -0.719336,0.13643 -0.409278,0 -0.731739,0 z m 2.728516,-6.62286 -0.471289,-0.29765 -0.148828,-1.21543 q 0.297656,-0.29766 0.694531,-0.60772 0.396875,-0.31006 0.880567,-0.44648 0.483691,-0.13643 0.967383,-0.22324 0.483691,-0.0868 0.95498,-0.23565 l 1.289844,0.32246 0.148828,0.89297 q -0.471289,0.29766 -0.95498,0.66973 -0.483692,0.37207 -1.041797,0.5333 -0.558106,0.16123 -1.128614,0.29765 -0.570508,0.13643 -1.190625,0.31006 z m 12.154308,-0.17363 0.17363,-0.12402 -1.14102,-0.32246 -0.768947,0.32246 -0.17363,0.44648 h 1.289847 z m -0.96739,-1.93477 0.34727,-0.76894 -0.81856,-0.44649 -0.793757,0.29766 -0.173628,0.44649 0.496098,0.59531 h 0.793747 z m 7.06935,-0.32246 0.14883,-0.89297 q -0.14883,-0.14882 -0.32246,-0.31005 -0.17363,-0.16123 -0.40928,-0.22325 -0.23564,-0.062 -0.38447,-0.062 -0.14883,0 -0.47129,0 l -2.08359,0.29766 -0.17364,0.44648 0.32247,0.91778 h 3.2246 z m -16.966424,-1.19062 q -0.322461,-0.17363 -0.396875,-0.47129 -0.07441,-0.29766 -0.173633,-0.5209 -0.09922,-0.22324 -0.09922,-0.5209 0,-0.29765 0,-0.59531 l 0.496094,-0.59531 3.695899,-0.44649 0.79375,0.57051 v 1.21543 l -0.644922,0.74414 z m 11.831854,-1.98438 1.28985,-0.12402 0.62011,0.12402 0.34727,-1.04179 -1.31465,-0.12403 -1.24024,0.57051 -0.34727,0.76895 h 0.49609 z"
       id="path3"
       style="fill:#1a1a1a;stroke-width:0.0248047" />
    <path
       d="m 97.00859,104.64487 -2.306836,-0.27285 q -0.198438,-0.27285 -0.359668,-0.54571 -0.161231,-0.27285 -0.235645,-0.5457 -0.07441,-0.27285 -0.07441,-0.60771 0,-0.33487 0,-0.60772 h -0.173633 0.644922 l 2.182813,0.12402 q 0.322461,-0.12402 0.818555,-0.19843 0.496094,-0.0744 0.892969,-0.21084 0.396875,-0.13643 0.74414,-0.27285 0.347266,-0.13643 0.669726,-0.5333 0.347267,-0.42168 0.582907,-0.96739 0.23565,-0.545694 0.39688,-1.091391 0.16123,-0.545707 0.26045,-1.091407 0.0992,-0.5457 0.0992,-1.09141 -0.19842,-0.27285 -0.59529,-0.27285 -0.39688,0 -0.818557,0 -0.421681,0 -0.843361,0 -0.421679,0 -0.74414,0 l -1.314649,0.14883 v 0.12402 l -1.984375,0.27285 v 0.14883 q -0.818555,0 -1.63711,0.19844 -0.818554,0.19844 -1.575097,0.47129 -0.756543,0.27285 -1.575098,0.40928 -0.818555,0.13642 -1.63711,0.409267 l -0.173633,-1.215427 0.322461,-0.69453 q 0.992188,-0.5457 2.232423,-0.60771 1.240234,-0.062 2.468066,-0.33487 1.227832,-0.27285 2.393653,-0.48369 1.16582,-0.21084 2.480469,-0.21084 v -0.27285 l -1.314649,-0.81855 v -0.54571 l 0.173633,-0.27285 h 0.644918 l 0.669727,0.12403 v -0.27286 l 2.480469,-1.0914 v -0.27285 l 0.66971,-0.54571 h 0.14884 v -0.27285 h -2.480465 q -0.669726,0.14883 -1.16582,0.34727 -0.496094,0.19843 -0.992188,0.40927 -0.496093,0.21084 -0.892969,0.54571 -0.396875,0.33486 -1.066601,0.33486 -0.173633,-0.12402 -0.347266,-0.33486 -0.173633,-0.21084 -0.248047,-0.40928 -0.07441,-0.19844 -0.16123,-0.40928 -0.08682,-0.21084 -0.08682,-0.48369 l 0.322461,-0.81855 q 0.992188,-0.27285 1.984376,-0.40928 0.992187,-0.13643 1.996777,-0.19844 1.004585,-0.062 2.158012,-0.062 1.1534,0 2.14559,0 l 1.81075,0.5457 0.4961,0.94258 -0.17364,0.5457 -0.66972,0.14883 v 0.27285 l -1.46349,1.09141 -0.49609,0.39688 -0.9922,0.42168 v 0.5457 l 0.32247,0.5457 q 0.99219,0.14883 2.0712,0.21084 1.07901,0.062 2.14562,0.062 1.0666,0 2.05879,0.21084 0.99218,0.21084 1.98437,0.33487 v 0.14882 q 0.4961,0 0.90537,0 0.40928,0 0.83096,0.062 0.42168,0.062 0.81856,0.13642 0.39687,0.0744 0.74414,0.19844 v 0.27285 h -0.34727 v 0.69453 h 0.17363 v 0.12403 l -0.64492,0.27285 v 0.42168 h 0.14883 l -1.66191,0.12402 -0.96739,-0.12402 v -0.14883 l -2.48047,-0.27285 v -0.27285 l -3.1502,-0.54571 h -0.96739 q -0.34727,0.69453 -0.5085,1.43868 -0.16123,0.744137 -0.39688,1.500671 -0.23564,0.756537 -0.49609,1.438667 -0.26045,0.68213 -0.73175,1.35186 l -0.52087,0.14882 -0.32247,0.94258 h -0.322467 l -0.17363,0.42168 q -0.32246,0.12403 -0.57051,0.26045 -0.248047,0.13643 -0.508496,0.27285 -0.260449,0.13643 -0.595313,0.13643 -0.334863,0 -0.657324,0 l -0.148832,-0.12402 z m 8.23519,-7.639838 v -0.12402 h 0.34726 v -0.27285 h -0.66973 v 0.39687 l 0.17364,0.14883 z m 1.33945,0 -0.66973,-0.12402 v 0.27285 h 0.4961 z m -16.172688,-3.96875 -0.173632,-0.39687 -1.339454,-0.42168 -0.148828,-1.36426 0.347266,-1.21543 -1.165821,-0.27285 v -0.81855 h 0.322461 l 0.173633,-0.54571 0.669727,-0.5457 7.391798,-1.51309 v -0.5457 q -0.148829,-0.12402 -0.235645,-0.26045 -0.08682,-0.13643 -0.08682,-0.27285 0,-0.13643 0,-0.34727 0,-0.21084 0,-0.33486 l 0.992187,-0.27285 1.314649,0.39687 0.322461,1.63711 q 1.686716,0 3.175016,0 1.48829,0 2.96418,0.27285 1.47588,0.27286 2.87734,0.54571 1.40147,0.27285 2.71611,0.81855 l 0.32247,0.81856 -0.96739,2.87734 -1.33945,0.12402 q -0.32246,-0.12402 -0.48369,-0.33486 -0.16123,-0.21084 -0.23565,-0.48369 -0.0744,-0.27285 -0.24804,-0.5457 -0.17364,-0.27285 -0.17364,-0.54571 h 0.4961 v -0.39687 l -0.66973,-0.96738 -0.99219,-0.27286 v -0.12402 l -1.98437,-0.14883 v -0.12402 h -0.64493 v -0.27285 h -0.4961 l -0.4961,0.12402 -0.81856,-0.12402 v 0.12402 h -0.32246 v -0.27285 h -0.32246 v 0.14883 h -0.34727 l -0.4961,-0.14883 v 0.14883 l -0.992188,0.12402 -0.843359,-0.12402 -4.936134,0.66972 v 0.27286 l -2.654101,0.69453 v 0.39687 q 0.173632,0.27285 0.248046,0.48369 0.07442,0.21084 0.07442,0.48369 0,0.27286 0,0.54571 0,0.27285 0,0.5457 l -0.967383,1.63711 z"
       id="path4"
       style="fill:#1a1a1a;stroke-width:0.0248047" />
    <path
       d="m 97.074736,129.72241 v -0.17363 l -0.768945,-0.44649 -0.644922,-2.1084 0.347266,-1.98437 q -0.173633,-0.29766 -0.334864,-0.45889 -0.16123,-0.16123 -0.16123,-0.45888 0,-0.29766 -0.148828,-0.54571 -0.148828,-0.24804 0,-0.5209 l 0.148828,-0.47128 -0.148828,-0.62012 q 0.148828,-0.14883 0.148828,-0.29766 0,-0.14883 0.248047,-0.14883 0.248047,0 0.396875,0 0.148828,0 0.272851,0 v -0.29765 q 0.793751,-0.17364 1.649512,-0.39688 0.855762,-0.22324 1.699117,-0.44648 0.843367,-0.22324 1.711537,-0.22324 0.86817,0 1.83555,0 l 1.36427,0.59531 q 0.32246,0.62012 0.47129,1.16582 0.14884,0.5457 0.14884,1.22783 0,0.68213 0,1.36426 0,0.68213 0,1.30225 l -0.4465,2.85253 0.14883,0.59532 h -0.49609 l -0.44649,0.49609 -0.32246,-0.62012 h -4.192017 l -0.471287,0.12403 v -0.29766 H 98.78626 Z m 3.745514,-0.91777 -0.19844,-0.17364 -0.12403,0.29766 h 0.12403 z m 0.44648,-0.17364 -0.14882,-0.14882 -0.14883,0.32246 h 0.14883 z m 1.09142,0 -0.17364,-0.14882 -0.12402,0.32246 h 0.12402 z m 0.62012,-1.63711 q 0.14882,-0.14882 0.31006,-0.37207 0.16123,-0.22324 0.16123,-0.5333 0,-0.31005 0,-0.62011 0,-0.31006 0,-0.60772 h -0.91778 l -1.26505,0.14883 v -0.14883 h -0.94258 l -2.455664,0.62012 -0.173632,1.83555 h 2.009179 z m 0,-2.28203 -0.14883,-0.17363 -0.14883,0.32246 h 0.14883 z m 0.47129,-0.91777 v -1.0666 l -0.12403,-0.64492 -1.90997,-0.29766 -1.562697,0.14883 v 0.29765 l -0.595317,-0.14882 -0.17363,0.47129 -0.917773,0.47128 -0.173633,0.76895 h 0.79375 l 4.19201,-0.49609 v 0.49609 z m -12.575996,-0.94258 -0.620117,-0.29765 q 0,-0.32247 -0.223243,-0.60772 -0.223242,-0.28525 -0.223242,-0.60771 0,-0.32247 0,-0.70694 0,-0.38447 0,-0.65732 l 1.835547,-0.4961 v -0.29765 l 4.365626,-1.21543 v -1.09141 l -0.173633,-0.57051 0.173633,-0.79375 -0.347266,-0.76894 h 0.173633 v -0.29766 h -0.322461 l -1.711524,0.62012 -0.297656,-1.0666 0.471289,-1.0666 q 0.471289,0 0.930176,-0.14883 0.458887,-0.14883 0.930176,-0.32246 0.471289,-0.17364 0.930176,-0.47129 0.458887,-0.29766 0.930176,-0.44649 v -0.47129 l -0.124024,-0.62011 -0.496094,-0.12403 v -1.24023 l 1.26504,-0.32246 0.91777,0.32246 v 0.29765 l 0.446487,0.17364 0.322457,1.66191 -0.173627,0.47129 h 0.768947 l 3.00138,-0.14883 1.38907,0.44649 v 0.44648 h 0.4465 l 0.14882,0.62012 0.34727,0.17363 0.12402,0.59531 -0.76894,0.17364 q -0.29767,-0.17364 -0.68214,-0.24805 -0.38447,-0.0744 -0.78135,-0.0744 -0.39688,0 -0.78136,0 -0.38447,0 -0.88057,0 v 0.32246 l 0.79376,0.59531 v 0.91777 l -0.62012,1.66192 q 1.26504,0.17363 2.5797,0.33486 1.31466,0.16123 2.55489,0.38447 1.24023,0.22325 2.48047,0.31006 1.24023,0.0868 2.48047,0.35967 h -0.14883 v 0.32246 l 0.47129,0.17363 1.24023,-0.17363 0.17364,0.47129 h -0.17364 v -0.29766 h -0.32246 l -0.12402,0.29766 h -0.17363 v -0.29766 h -0.32246 l -0.44649,0.29766 v 0.29766 l 1.38906,0.14882 0.17364,-0.14882 -0.4961,0.32246 v 0.27285 h 0.32246 v 0.17363 l -0.32246,0.14883 -0.12402,0.44648 q -0.32246,0.32247 -0.79375,0.32247 -0.47129,0 -0.86816,0 -0.39688,0 -0.85577,0 -0.45888,0 -0.90537,0 l -0.94258,-0.32247 -0.32246,-0.44648 q -0.76894,-0.14883 -1.38906,-0.37207 -0.62012,-0.22324 -1.32705,-0.31006 -0.70693,-0.0868 -1.40148,-0.31006 -0.69453,-0.22324 -1.43868,-0.0992 v -0.29765 h -0.34726 q -1.21544,0.17363 -2.38127,0.23564 -1.165814,0.062 -2.344041,0.22324 -1.178223,0.16123 -2.269629,0.47129 -1.091406,0.31006 -2.182813,0.75655 v 0.14882 h -0.595312 l -0.173633,0.47129 -1.240235,0.59532 -0.148828,0.47129 z m 10.095516,-0.91777 v -0.27285 h -0.34727 v 0.27285 z m 0.91777,-0.27285 -0.62012,-0.17364 v 0.29766 h 0.4961 z m 11.36058,-1.68672 -0.62012,-0.17364 v 0.32247 h 0.44649 z m 0.32246,-0.91778 -0.17363,-0.17363 -0.14883,0.17363 0.14883,0.12403 z m -15.403747,-1.71152 2.331637,-0.91777 0.62013,-2.6045 h -1.265047 v -0.29765 h -0.595317 l -3.249411,0.76894 v 0.29766 l 1.21543,0.29766 q 0,0.34726 0.235644,0.5581 0.235645,0.21084 0.235645,0.59531 0,0.38448 0,0.75655 0,0.37207 0,0.71933 h 0.297656 z"
       id="path5"
       style="fill:#1a1a1a;stroke-width:0.0248047" />
    <path
       style="font-size:3.49634px;line-height:1.25;font-family:'Source Han Serif HC VF';-inkscape-font-specification:'Source Han Serif HC VF';stroke-width:0.0364205"
       d="m 150.2249,118.73642 0.0315,0.0804 c 0.48948,-0.14335 0.74472,-0.32516 0.93002,-0.61885 0.20978,-0.32866 0.24824,-0.7692 0.24824,-1.10135 0,-0.60137 -0.16433,-1.13631 -0.49648,-1.13631 -0.12237,0 -0.26922,0.0874 -0.3811,0.2902 -0.12237,0.22376 -0.21328,0.5699 -0.21328,0.99645 0,0.66081 0.33915,1.0559 0.90206,1.0559 0.63633,0 1.02792,-0.37411 1.02792,-0.95101 0,-0.52095 -0.38809,-0.88457 -0.90904,-0.88457 -0.37411,0 -0.68529,0.12936 -0.87059,0.26572 -0.33915,0.24125 -0.58739,0.56641 -0.7657,0.97898 -0.0454,-0.0664 -0.0664,-0.1923 -0.0664,-0.30069 0,-0.17132 0.0839,-0.3846 0.15733,-0.58738 0.0315,-0.0769 0.0839,-0.18531 0.0839,-0.27272 0,-0.10139 -0.11538,-0.23425 -0.17832,-0.29019 -0.0629,-0.0559 -0.12587,-0.0839 -0.1923,-0.10839 l -0.049,0.042 c 0.0734,0.0909 0.18181,0.21327 0.18181,0.35662 0,0.23775 -0.15733,0.58039 -0.15733,0.91255 0,0.31467 0.10839,0.53494 0.18181,0.63283 0.0419,0.0524 0.0909,0.0979 0.14335,0.0979 0.0629,0 0.0944,-0.0385 0.0944,-0.0909 0,-0.0874 -0.0454,-0.13986 -0.0454,-0.24824 0,-0.19929 0.22027,-0.68179 0.5664,-0.94751 0.2867,-0.21677 0.5769,-0.32166 0.90905,-0.31817 0.32866,0.004 0.69927,0.22726 0.69927,0.73423 0,0.52096 -0.3811,0.75521 -0.79716,0.75521 -0.51397,0 -0.7692,-0.31117 -0.7692,-0.9545 0,-0.29369 0.0664,-0.61535 0.15734,-0.80416 0.0874,-0.17831 0.19229,-0.24124 0.27271,-0.24124 0.14685,0 0.29719,0.24824 0.29719,1.03841 0,0.7622 -0.22027,1.34609 -0.99296,1.6188 z m 7.16051,-0.0734 0.0105,0.0839 c 0.80416,0.049 1.73418,-0.20278 1.73418,-0.83213 0,-0.35313 -0.25173,-0.69577 -0.77269,-0.69577 -0.36711,0 -0.77968,0.18181 -1.17127,0.50697 -0.028,0.021 -0.0454,0.0175 -0.0454,-0.021 -0.004,-0.17132 0.0454,-0.35662 0.0839,-0.51396 0.028,-0.12237 0.0664,-0.21677 0.0664,-0.30418 -0.004,-0.0664 -0.042,-0.16433 -0.042,-0.20279 0,-0.035 0.014,-0.0559 0.0699,-0.0699 0.0874,-0.021 0.33215,-0.0804 0.52795,-0.0874 0.15384,-0.004 0.18181,0.021 0.26922,0.021 0.0769,0 0.11537,-0.0455 0.11537,-0.13287 0,-0.11887 -0.0489,-0.22376 -0.19929,-0.32516 -0.12237,-0.0874 -0.30418,-0.17132 -0.62934,-0.19929 l -0.0245,0.0734 c 0.21677,0.0664 0.41257,0.15034 0.50347,0.26222 0.0524,0.0594 0.0489,0.0909 -0.004,0.11189 -0.13985,0.0489 -0.48249,0.12586 -0.6643,0.17132 -0.11188,0.028 -0.14335,0.0874 -0.14335,0.16083 0,0.0769 0.014,0.16782 -0.0105,0.31467 -0.0245,0.17482 -0.0874,0.479 -0.11188,0.68878 -0.014,0.0839 -0.0385,0.16433 -0.0385,0.22027 0,0.0455 0.0315,0.11538 0.0699,0.16083 0.0455,0.0524 0.0804,0.0734 0.12237,0.0734 0.0664,0 0.10838,-0.10489 0.15733,-0.16782 0.27621,-0.31118 0.68878,-0.61886 1.08037,-0.61886 0.30069,0 0.54893,0.1993 0.54893,0.50697 0,0.25873 -0.1923,0.54194 -0.83912,0.71675 -0.16084,0.042 -0.41607,0.0839 -0.66431,0.0979 z m 7.06261,-0.19929 c 0.14685,0.0629 0.24125,0.007 0.24125,-0.0909 0,-0.0734 -0.0594,-0.0909 -0.028,-0.24475 0.021,-0.10839 0.13286,-0.40557 0.21677,-0.63284 l -0.0944,-0.0419 c -0.0979,0.21677 -0.21677,0.472 -0.32516,0.63633 -0.0315,0.0489 -0.0699,0.0524 -0.12237,0.028 -0.15034,-0.0769 -0.35313,-0.30768 -0.35313,-0.75171 0,-0.35663 0.11888,-0.5769 0.11888,-0.73423 0,-0.14335 -0.18181,-0.30069 -0.30768,-0.35663 -0.0664,-0.0315 -0.13286,-0.042 -0.21677,-0.0559 l -0.035,0.0524 c 0.24824,0.17832 0.27621,0.26573 0.27621,0.45453 0,0.15384 -0.0245,0.39509 -0.0175,0.64682 0.014,0.6713 0.37411,0.97198 0.64682,1.09086 z m 1.85307,-0.58039 c 0.0909,0 0.13635,-0.0594 0.13635,-0.19929 0,-0.23426 -0.10489,-0.5804 -0.30068,-0.78668 -0.16083,-0.16433 -0.32866,-0.2832 -0.66081,-0.34264 l -0.028,0.0839 c 0.23076,0.0874 0.41956,0.21328 0.54193,0.41956 0.14685,0.24824 0.17482,0.54893 0.1958,0.69927 0.0175,0.0839 0.0594,0.12587 0.11538,0.12587 z"
       id="text7"
       aria-label="ゆ    ら    い" />
    <path
       d="m 120.58365,94.152771 v -1.976506 h 0.73136 v -0.09067 h -0.71625 l -0.20249,-0.09973 v 2.236413 h 0.0363 c 0.0846,0 0.15111,-0.04533 0.15111,-0.06951 z m 0.55003,-2.526543 -0.31733,-0.07555 c -0.0332,0.184353 -0.0937,0.453327 -0.12995,0.601413 h 0.0725 c 0.0786,-0.123909 0.1904,-0.323373 0.25991,-0.462393 0.0635,0 0.0997,-0.02116 0.11484,-0.06347 z m 1.52016,0.456349 h 0.0332 c -0.0211,1.084963 -0.0635,1.810286 -0.18133,1.922107 -0.0302,0.03627 -0.0544,0.04231 -0.11484,0.04231 -0.0725,0 -0.29013,-0.01813 -0.42613,-0.03324 l -0.003,0.05138 c 0.12391,0.02116 0.25084,0.05742 0.2992,0.09369 0.0453,0.03022 0.0574,0.08764 0.0574,0.154131 0.14506,0 0.26897,-0.04533 0.35057,-0.148087 0.14204,-0.172264 0.19644,-0.849232 0.2176,-1.967439 0.0665,-0.006 0.10275,-0.02115 0.12693,-0.04533 l -0.23875,-0.202486 z m -1.46878,0.003 h 0.0302 v 2.049039 h 0.0302 c 0.0665,0 0.15716,-0.04836 0.16018,-0.06951 v -1.855618 c 0.0604,-0.01209 0.11182,-0.03324 0.13297,-0.05742 l -0.24177,-0.190397 z m 0.5863,0.619547 -0.0332,0.02418 c 0.15111,0.157153 0.33244,0.420083 0.3687,0.625591 0.2176,0.172264 0.39289,-0.320351 -0.33546,-0.649769 z m 1.05172,-0.622569 h -0.93083 l -0.0363,0.09067 h 0.9671 z m -0.56515,-0.438216 -0.30826,-0.09067 c -0.0997,0.465416 -0.29013,0.927809 -0.48657,1.227005 l 0.0423,0.03022 c 0.26293,-0.26293 0.48959,-0.667902 0.6407,-1.10914 0.0665,0.003 0.0997,-0.0272 0.11182,-0.05742 z m -0.91572,1.284427 h -0.84319 v 0.09067 h 0.84319 z m 0,0.888521 h -0.84319 v 0.09067 h 0.84319 z m 2.29686,-0.640703 c 0.1088,0 0.18737,-0.08764 0.18737,-0.184352 0,-0.105777 -0.0786,-0.187376 -0.18737,-0.187376 -0.10578,0 -0.18435,0.0816 -0.18435,0.187376 0,0.09671 0.0786,0.184352 0.18435,0.184352 z m 2.65347,-1.381136 h -0.15715 c -0.0121,0.26293 -0.0846,0.8311 -0.13298,1.087985 l 0.0605,-0.108798 c -0.0514,0.01209 -0.12391,0.03929 -0.1632,0.06649 l 0.19644,0.157153 0.0907,-0.09369 h -0.0272 c 0.0514,-0.299196 0.11182,-0.828077 0.13297,-1.10914 z m -0.96407,0.03929 h -0.13298 v 1.952328 c 0,0.06347 -0.009,0.0816 -0.0756,0.114843 l 0.1088,0.232708 c 0.0453,-0.01813 0.11182,-0.09973 0.0876,-0.223642 l -0.0786,0.06649 0.12996,-0.03324 v -2.088326 z m -0.13298,-0.184353 v 0.290129 c 0.11484,0 0.17227,0 0.17227,0 v -0.178309 h 0.0363 z m -0.0363,2.245479 0.10879,0.181331 c 0.23573,-0.199464 0.4624,-0.420083 0.57724,-0.522837 l -0.0242,-0.03929 c -0.26595,0.16622 -0.53795,0.323373 -0.66185,0.380794 z m 0.51981,-2.133659 h 0.0272 v 1.338826 h 0.0242 c 0.0574,0 0.13902,-0.04231 0.14204,-0.06044 v -1.169583 c 0.0514,-0.0091 0.0937,-0.03022 0.11182,-0.04836 l -0.20551,-0.163198 z m 0.10275,1.087985 h -0.49563 v 0.09067 h 0.49563 z m -0.006,-0.547015 h -0.49262 v 0.09067 h 0.49262 z m 0.003,-0.54097 h -0.48959 v 0.09067 h 0.48959 z m -0.17226,1.390203 -0.0393,0.01813 c 0.11182,0.172264 0.25084,0.450305 0.26897,0.655813 0.17227,0.160176 0.33547,-0.256885 -0.22968,-0.673946 z m 1.03056,-1.366025 h -0.18435 c -0.009,0.831099 -0.0121,1.774019 -0.80995,2.490276 l 0.0484,0.05138 c 0.90363,-0.692079 0.92176,-1.644066 0.94594,-2.541653 z m 0.0363,1.353936 -0.25689,-0.03022 v 0.958031 c 0,0.117865 0.0272,0.160175 0.17529,0.160175 h 0.12693 c 0.23271,0 0.30222,-0.03627 0.30222,-0.105776 0,-0.03627 -0.009,-0.05742 -0.0635,-0.07858 l -0.009,-0.377772 h -0.0393 c -0.0242,0.148086 -0.0544,0.326395 -0.0725,0.368706 -0.009,0.02418 -0.0151,0.0272 -0.0332,0.03022 -0.0151,0 -0.0453,0 -0.0816,0 h -0.0876 c -0.0423,0 -0.0484,-0.006 -0.0484,-0.04231 v -0.809944 c 0.0544,-0.0091 0.0846,-0.03627 0.0876,-0.07253 z m 0.0695,-1.5534 -0.13298,0.16622 h -0.62861 l 0.0242,0.09067 h 0.90061 c 0.0423,0 0.0725,-0.01511 0.0816,-0.04836 -0.0967,-0.09067 -0.24479,-0.20853 -0.24479,-0.20853 z m 0.0665,1.060785 -0.12391,0.16622 h -0.66186 l 0.0242,0.09067 h 0.91874 c 0.0393,0 0.0695,-0.01511 0.0756,-0.04836 -0.0876,-0.09067 -0.2327,-0.20853 -0.2327,-0.20853 z m -2.26362,1.217939 v -2.003706 h 0.42009 v -0.08764 h -0.40498 l -0.18737,-0.09369 v 2.251525 h 0.0302 c 0.0816,0 0.14204,-0.04231 0.14204,-0.06649 z m 0.39591,-0.377773 h -0.51075 v 0.09067 h 0.51075 z m -0.12996,-1.713576 h 0.0302 v 2.055082 h 0.0242 c 0.0635,0 0.14507,-0.05138 0.14809,-0.06951 v -1.864685 c 0.0604,-0.01209 0.11182,-0.03324 0.12995,-0.05742 l -0.22666,-0.178309 z"
       id="text8"
       style="font-size:3.02218px;line-height:1.25;font-family:'Source Han Serif HC VF';-inkscape-font-specification:'Source Han Serif HC VF';stroke-width:0.031481"
       aria-label="的·嘅" />
    <path
       style="font-style:italic;font-size:5.29167px;line-height:1.25;font-family:Caladea;-inkscape-font-specification:'Caladea Italic';stroke-width:0.264583"
       d="m 44.073824,139.54265 1.285876,0.0159 1.412876,-0.0159 -0.137584,0.8943 q -0.04233,0.0106 -0.105833,0.0106 -0.05821,0 -0.132292,-0.0106 0.0053,-0.037 0.0053,-0.12171 0,-0.26988 -0.09525,-0.46038 -0.179917,-0.0106 -0.677334,-0.0212 l -0.465667,2.92629 q 0.15875,0.0847 0.529167,0.13229 l -0.02646,0.19579 h -1.502834 l 0.03175,-0.19579 q 0.333375,-0.0317 0.497417,-0.13229 l 0.470958,-2.92629 q -0.418042,0 -0.714375,0.0106 -0.211667,0.26988 -0.280459,0.59267 -0.08467,0.0106 -0.142875,0.0106 -0.05821,0 -0.08996,-0.0106 z m 3.238499,0.35455 q 0,-0.22225 -0.407459,-0.26459 l 0.02646,-0.17462 0.767292,-0.0582 0.132292,0.13229 -0.269876,1.65629 q 0.354542,-0.61912 0.836084,-0.61912 0.28575,0 0.439209,0.14817 0.15875,0.14816 0.15875,0.41804 0,0.0582 -0.02646,0.22225 l -0.22225,1.28587 q 0,0.11642 0.105833,0.11642 0.105833,0 0.275167,-0.10054 l 0.05292,0.16933 q -0.343958,0.29634 -0.60325,0.29634 -0.179917,0 -0.243417,-0.0688 -0.05821,-0.0741 -0.05821,-0.17462 0,-0.10583 0.127,-0.83609 0.127,-0.73025 0.127,-0.86254 0,-0.13758 -0.07937,-0.22754 -0.07408,-0.0953 -0.201083,-0.0953 -0.275167,0 -0.492126,0.34396 -0.211667,0.33867 -0.3175,0.82021 l -0.174625,1.06362 h -0.455084 l 0.396876,-2.48708 q 0.105833,-0.64558 0.105833,-0.70379 z m 4.323298,1.23296 q 0,0.39158 -0.439209,0.66145 -0.439208,0.26459 -1.105959,0.26459 v 0.12171 q 0,0.33866 0.127,0.508 0.127,0.16404 0.343959,0.16404 0.296333,0 0.724959,-0.32279 l 0.153458,0.19579 q -0.164042,0.16404 -0.428625,0.28575 -0.264584,0.11642 -0.555626,0.11642 -0.439208,0 -0.645583,-0.254 -0.201084,-0.254 -0.201084,-0.61384 0,-0.762 0.359834,-1.22237 0.365125,-0.46567 0.941917,-0.46567 0.359834,0 0.53975,0.16404 0.185209,0.16404 0.185209,0.39688 z m -0.762001,-0.3175 q -0.291042,0 -0.492125,0.27516 -0.195792,0.27517 -0.264583,0.70909 0.470958,0 0.762,-0.1905 0.291042,-0.1905 0.291042,-0.48684 0,-0.127 -0.07937,-0.21696 -0.07408,-0.09 -0.216959,-0.09 z m 4.968878,-0.45509 q -0.07937,0.0265 -0.132292,0.0265 -0.04762,0 -0.100541,-0.0106 -0.01058,-0.34925 -0.132292,-0.53446 h -0.973667 l -0.211667,1.32821 q 0.4445,-0.0106 0.566209,-0.0265 0.206375,-0.0159 0.343958,-0.34925 h 0.169334 l -0.164042,1.03187 h -0.164042 q 0,-0.1217 -0.04762,-0.22754 -0.04233,-0.10583 -0.08996,-0.127 -0.04233,-0.0265 -0.105834,-0.0317 l -0.550333,-0.0212 -0.216959,1.37054 h 1.026584 q 0.174625,-0.19579 0.3175,-0.59267 0.0635,-0.0106 0.09525,-0.0106 0.03704,0 0.121709,0.0106 l -0.1905,0.89429 h -2.333627 l 0.02646,-0.19579 q 0.312208,-0.037 0.47625,-0.13758 l 0.455083,-2.86279 q -0.174625,-0.10584 -0.455083,-0.13759 l 0.02646,-0.19579 h 2.323043 z m 0.899589,2.25425 q 0,0.18521 0.185208,0.18521 0.185209,0 0.582084,-0.26987 l 0.127,0.17991 q -0.164042,0.1323 -0.259292,0.20109 -0.09525,0.0635 -0.28575,0.14287 -0.1905,0.0741 -0.391583,0.0741 -0.201084,0 -0.312209,-0.11113 -0.105833,-0.11642 -0.105833,-0.27517 0,-0.15875 0.264583,-1.83621 h -0.381 l 0.03175,-0.17462 q 0.312209,-0.0847 0.449792,-0.21696 0.137583,-0.13758 0.275167,-0.40746 h 0.211667 l -0.08467,0.51329 h 0.846667 l -0.05821,0.28575 h -0.836084 l -0.0635,0.3863 q -0.195792,1.19062 -0.195792,1.32291 z m 2.973911,-1.58221 q 0,-0.17991 -0.201083,-0.20108 l -0.0053,-0.17992 0.624417,-0.0794 0.179917,0.11642 q -0.08996,0.41804 -0.41275,0.92075 l -1.254126,1.92087 q -0.04762,0.0741 -0.05821,0.16404 0,0.1323 0.127,0.1323 0.05821,0 0.127,-0.037 0.0635,0.0952 0.0635,0.1958 0,0.10054 -0.105834,0.17991 -0.105833,0.0847 -0.264583,0.0847 -0.153458,0 -0.248708,-0.0847 -0.08996,-0.0794 -0.08996,-0.20108 0,-0.12171 0.0635,-0.26988 0.105834,-0.22754 0.370417,-0.635 l -0.254,-1.905 q -0.0053,-0.0741 -0.0635,-0.16933 -0.03704,-0.0741 -0.28575,-0.0741 l -0.02117,-0.17463 0.624417,-0.16404 0.137583,0.127 0.243417,1.83621 q 0.703792,-1.12713 0.703792,-1.50284 z m 0.851954,2.05846 q 0.312209,-1.95262 0.312209,-2.032 0,-0.0847 -0.07937,-0.11641 -0.07937,-0.0318 -0.259292,-0.0318 l -0.02646,-0.17463 0.719668,-0.16404 0.132291,0.13229 -0.05292,0.48683 q 0.343958,-0.61912 0.836083,-0.61912 0.296334,0 0.444501,0.15346 0.153458,0.15346 0.153458,0.43921 0.34925,-0.59267 0.820209,-0.59267 0.28575,0 0.439209,0.14817 0.15875,0.14816 0.15875,0.41804 0,0.09 -0.02117,0.21166 l -0.195792,1.17476 q -0.02646,0.13229 -0.02646,0.15875 0,0.0794 0.100542,0.0794 0.105833,0 0.275166,-0.10054 l 0.05292,0.16933 q -0.343958,0.29634 -0.608542,0.29634 -0.179917,0 -0.238125,-0.0688 -0.05821,-0.0741 -0.05821,-0.17991 0,-0.10584 0.127,-0.83609 0.127,-0.73025 0.127,-0.86254 0,-0.13229 -0.07937,-0.22225 -0.07408,-0.0953 -0.22225,-0.0953 -0.142876,0 -0.280459,0.10583 -0.137583,0.10584 -0.232833,0.29634 -0.09525,0.18521 -0.169334,0.39687 -0.07408,0.21167 -0.127,0.47625 -0.07408,0.40746 -0.111125,0.67205 -0.03704,0.26458 -0.03704,0.28045 h -0.449792 q 0.01588,-0.11641 0.08996,-0.5662 0.201083,-1.16417 0.201083,-1.31763 0,-0.15875 -0.07937,-0.24871 -0.07408,-0.0953 -0.201083,-0.0953 -0.306917,0 -0.534459,0.41275 -0.227542,0.41275 -0.312208,0.9525 l -0.137584,0.86254 z m 5.13821,-0.21695 q 0.301625,0 0.53975,-0.42334 0.243417,-0.42333 0.243417,-1.02129 0,-0.60325 -0.370417,-0.60325 -0.306917,0 -0.545042,0.42862 -0.238125,0.42334 -0.238125,1.0213 0,0.59796 0.370417,0.59796 z m 0,0.254 q -0.423334,0 -0.645584,-0.23284 -0.216958,-0.23812 -0.216958,-0.67204 0,-0.67204 0.338667,-1.15888 0.338667,-0.49212 0.936625,-0.49212 0.423334,0 0.640292,0.23812 0.22225,0.23284 0.22225,0.66675 0,0.67734 -0.338666,1.16417 -0.338667,0.48684 -0.936626,0.48684 z m 2.571752,-2.71463 q -0.127001,0.79375 -0.238126,1.49225 -0.111125,0.69321 -0.111125,0.75142 0,0.0529 0.02117,0.0794 0.02117,0.0265 0.100542,0.0265 0.08467,0 0.254,-0.10054 l 0.05292,0.16933 q -0.343959,0.29634 -0.608542,0.29634 -0.179917,0 -0.238126,-0.0688 -0.05821,-0.0688 -0.05821,-0.17991 0,-0.20109 0.259292,-1.79917 l 0.08996,-0.52917 q 0.105834,-0.64558 0.105834,-0.70379 0,-0.22225 -0.407459,-0.26458 l 0.02646,-0.17463 0.767293,-0.0582 0.132291,0.13229 q -0.02117,0.13759 -0.148166,0.93134 z m 1.524003,2.46063 q 0.301625,0 0.53975,-0.42334 0.243417,-0.42333 0.243417,-1.02129 0,-0.60325 -0.370417,-0.60325 -0.306917,0 -0.545042,0.42862 -0.238125,0.42334 -0.238125,1.0213 0,0.59796 0.370417,0.59796 z m 0,0.254 q -0.423334,0 -0.645584,-0.23284 -0.216959,-0.23812 -0.216959,-0.67204 0,-0.67204 0.338667,-1.15888 0.338667,-0.49212 0.936626,-0.49212 0.423333,0 0.640292,0.23812 0.22225,0.23284 0.22225,0.66675 0,0.67734 -0.338667,1.16417 -0.338667,0.48684 -0.936625,0.48684 z m 1.33879,0.56091 q 0,-0.16404 0.111125,-0.26458 0.105834,-0.0952 0.248709,-0.0952 0.201083,0 0.269875,0.18521 -0.08996,0.0741 -0.08996,0.19579 0,0.12171 0.105834,0.20637 0.111125,0.09 0.333375,0.09 0.402167,0 0.60325,-0.29104 0.201084,-0.28575 0.291042,-0.81492 l 0.05292,-0.32279 q -0.370417,0.55034 -0.762,0.55034 -0.386292,0 -0.534459,-0.24342 -0.148167,-0.24871 -0.148167,-0.66675 0,-0.42334 0.132292,-0.78846 0.137583,-0.36513 0.41275,-0.61383 0.275167,-0.254 0.597959,-0.254 0.328083,0 0.629709,0.13758 l 0.269875,-0.127 0.15875,0.0741 -0.333375,2.05317 q -0.127001,0.79904 -0.476251,1.17475 -0.34925,0.37571 -0.973667,0.37571 -0.391584,0 -0.645584,-0.14817 -0.254,-0.14287 -0.254,-0.41275 z m 1.778001,-2.87867 q -0.34925,0 -0.587375,0.4498 -0.238125,0.44979 -0.238125,0.92604 0,0.66675 0.338667,0.66675 0.216958,0 0.481542,-0.44979 0.264583,-0.45509 0.328083,-0.96309 l 0.0635,-0.50271 q -0.185208,-0.127 -0.386292,-0.127 z m 2.963334,0.22225 q 0,-0.17991 -0.201084,-0.20108 l -0.0053,-0.17992 0.624417,-0.0794 0.179916,0.11642 q -0.08996,0.41804 -0.41275,0.92075 l -1.254126,1.92087 q -0.04762,0.0741 -0.05821,0.16404 0,0.1323 0.127,0.1323 0.05821,0 0.127,-0.037 0.0635,0.0952 0.0635,0.1958 0,0.10054 -0.105833,0.17991 -0.105834,0.0847 -0.264584,0.0847 -0.153458,0 -0.248708,-0.0847 -0.08996,-0.0794 -0.08996,-0.20108 0,-0.12171 0.0635,-0.26988 0.105834,-0.22754 0.370417,-0.635 l -0.254,-1.905 q -0.0053,-0.0741 -0.0635,-0.16933 -0.03704,-0.0741 -0.28575,-0.0741 l -0.02117,-0.17463 0.624417,-0.16404 0.137584,0.127 0.243417,1.83621 q 0.703792,-1.12713 0.703792,-1.50284 z m 2.926285,1.84151 q 0.301625,0 0.539751,-0.42334 0.243416,-0.42333 0.243416,-1.02129 0,-0.60325 -0.370417,-0.60325 -0.306916,0 -0.545042,0.42862 -0.238125,0.42334 -0.238125,1.0213 0,0.59796 0.370417,0.59796 z m 0,0.254 q -0.423333,0 -0.645584,-0.23284 -0.216958,-0.23812 -0.216958,-0.67204 0,-0.67204 0.338667,-1.15888 0.338667,-0.49212 0.936625,-0.49212 0.423334,0 0.640293,0.23812 0.22225,0.23284 0.22225,0.66675 0,0.67734 -0.338667,1.16417 -0.338667,0.48684 -0.936626,0.48684 z m 1.788585,1.0107 q -0.07937,0.0423 -0.190501,0.0741 -0.105833,0.037 -0.280458,0.037 -0.179917,0 -0.322792,-0.11113 -0.148167,-0.11112 -0.148167,-0.29104 0,-0.17462 0.09525,-0.26458 0.08996,-0.09 0.216959,-0.09 0.211667,0 0.254,0.1905 -0.08996,0.0476 -0.08996,0.16404 0,0.14817 0.142875,0.14817 0.216958,0 0.296333,-0.29104 0.05292,-0.1905 0.08467,-0.52388 0.03704,-0.33337 0.05821,-0.46037 l 0.291042,-1.81505 h -0.391583 l 0.03175,-0.17991 0.402167,-0.10584 0.04762,-0.24341 q 0.185208,-0.97367 0.899583,-0.97367 0.238126,0 0.402167,0.127 0.169334,0.12171 0.169334,0.30692 0,0.18521 -0.100542,0.29104 -0.100542,0.10583 -0.227542,0.10583 -0.185208,0 -0.238125,-0.1905 0.127,-0.0952 0.127,-0.1905 0,-0.20108 -0.232833,-0.20108 -0.243417,0 -0.3175,0.26458 -0.05292,0.19579 -0.0635,0.43392 -0.01058,0.23812 -0.01588,0.29633 h 0.508001 l -0.03704,0.25929 h -0.513292 l -0.296333,1.87326 q -0.07938,0.51858 -0.116417,0.61912 -0.03175,0.10054 -0.07937,0.23813 -0.04762,0.14287 -0.09525,0.20108 -0.04233,0.0635 -0.116417,0.15875 -0.07408,0.10054 -0.153458,0.14287 z m 4.418537,-1.04775 h -0.285751 l -0.635,-2.70933 -0.338667,2.37596 q 0.174625,0.10054 0.476251,0.13758 l -0.02117,0.19579 h -1.270001 l 0.02646,-0.19579 q 0.280459,-0.0317 0.449792,-0.13758 l 0.455084,-2.86279 q -0.174625,-0.10584 -0.449792,-0.13759 l 0.02646,-0.19579 h 0.915459 l 0.672042,2.91571 1.598085,-2.91571 h 0.851958 l -0.02646,0.19579 q -0.269875,0.0317 -0.449792,0.13759 l -0.455083,2.86279 q 0.174625,0.10054 0.47625,0.13758 l -0.02117,0.19579 h -1.397001 l 0.02646,-0.19579 q 0.280458,-0.037 0.449792,-0.13758 l 0.41275,-2.37596 z m 3.376084,-0.21695 q 0.301626,0 0.539751,-0.42334 0.243417,-0.42333 0.243417,-1.02129 0,-0.60325 -0.370417,-0.60325 -0.306917,0 -0.545042,0.42862 -0.238125,0.42334 -0.238125,1.0213 0,0.59796 0.370416,0.59796 z m 0,0.254 q -0.423333,0 -0.645583,-0.23284 -0.216959,-0.23812 -0.216959,-0.67204 0,-0.67204 0.338667,-1.15888 0.338667,-0.49212 0.936626,-0.49212 0.423333,0 0.640292,0.23812 0.22225,0.23284 0.22225,0.66675 0,0.67734 -0.338667,1.16417 -0.338667,0.48684 -0.936626,0.48684 z m 3.476627,-2.44476 q 0,0 0.137584,-0.78316 0,-0.22225 -0.407459,-0.26459 l 0.02646,-0.17462 0.767292,-0.0582 0.121708,0.13229 -0.492125,3.048 q -0.01587,0.0794 -0.01587,0.10055 0,0.0794 0.105833,0.0794 0.105834,0 0.275167,-0.10054 l 0.05292,0.16933 q -0.343959,0.29634 -0.597959,0.29634 -0.185208,0 -0.243417,-0.0688 -0.05821,-0.0688 -0.05821,-0.16404 0,-0.10054 0.04233,-0.32279 -0.375708,0.55563 -0.767292,0.55563 -0.386292,0 -0.534458,-0.24342 -0.148167,-0.24871 -0.148167,-0.66675 0,-0.42334 0.132291,-0.78317 0.137584,-0.36512 0.412751,-0.61383 0.275167,-0.24871 0.60325,-0.24871 0.333375,0 0.587375,0.11112 z m -0.926042,2.16959 q 0.22225,0 0.460376,-0.381 0.238125,-0.38629 0.333375,-0.97367 l 0.08996,-0.55562 q -0.201083,-0.1323 -0.396875,-0.1323 -0.34925,0 -0.587375,0.4498 -0.238126,0.44979 -0.238126,0.92604 0,0.66675 0.338667,0.66675 z m 3.989919,-1.71979 q 0,0.39158 -0.439209,0.66145 -0.439208,0.26459 -1.105959,0.26459 v 0.12171 q 0,0.33866 0.127001,0.508 0.127,0.16404 0.343958,0.16404 0.296334,0 0.724959,-0.32279 l 0.153458,0.19579 q -0.164041,0.16404 -0.428625,0.28575 -0.264583,0.11642 -0.555625,0.11642 -0.439209,0 -0.645584,-0.254 -0.201083,-0.254 -0.201083,-0.61384 0,-0.762 0.359833,-1.22237 0.365125,-0.46567 0.941917,-0.46567 0.359834,0 0.539751,0.16404 0.185208,0.16404 0.185208,0.39688 z m -0.762,-0.3175 q -0.291042,0 -0.492126,0.27516 -0.195791,0.27517 -0.264583,0.70909 0.470958,0 0.762,-0.1905 0.291042,-0.1905 0.291042,-0.48684 0,-0.127 -0.07937,-0.21696 -0.07408,-0.09 -0.216958,-0.09 z m 1.211796,2.27541 q 0.306917,-1.95262 0.306917,-2.032 0,-0.0847 -0.07937,-0.11641 -0.07938,-0.0318 -0.259292,-0.0318 l -0.02646,-0.17463 0.735542,-0.16404 0.132292,0.13229 -0.07408,0.51329 q 0.322792,-0.64558 0.6985,-0.64558 0.195792,0 0.301625,0.127 0.111125,0.12171 0.111125,0.28046 0,0.15346 -0.09525,0.26458 -0.09525,0.11113 -0.243416,0.11113 -0.148167,0 -0.195792,-0.09 0.03704,-0.09 0.03704,-0.21167 0,-0.127 -0.09525,-0.127 -0.179916,0 -0.391583,0.37042 -0.206375,0.37041 -0.296334,1.02658 l -0.100541,0.76729 z m 2.127251,0 q 0.312208,-1.95262 0.312208,-2.032 0,-0.0847 -0.07937,-0.11641 -0.07937,-0.0318 -0.259292,-0.0318 l -0.02646,-0.17463 0.719667,-0.16404 0.132292,0.13229 -0.05292,0.48683 q 0.343959,-0.61912 0.836084,-0.61912 0.28575,0 0.439209,0.14817 0.15875,0.14816 0.15875,0.41804 0,0.10583 -0.08467,0.58208 -0.153458,0.86254 -0.153458,0.93134 0,0.0635 0.01587,0.09 0.02117,0.0212 0.100541,0.0212 0.08467,0 0.254,-0.10054 l 0.05292,0.16933 q -0.343958,0.29634 -0.608542,0.29634 -0.179917,0 -0.238125,-0.0688 -0.05821,-0.0741 -0.05821,-0.17991 0,-0.10584 0.127,-0.83609 0.127,-0.73025 0.127,-0.86254 0,-0.13229 -0.07937,-0.22225 -0.07408,-0.0953 -0.201084,-0.0953 -0.306917,0 -0.534458,0.41275 -0.227542,0.41275 -0.312209,0.9525 l -0.137583,0.86254 z m 5.630326,-3.52954 q 0.55563,0 0.82551,0.18521 0.26987,0.18521 0.26987,0.58208 0,1.21179 -1.51871,1.21179 h -0.18521 l -0.19579,1.21709 q 0.16933,0.10054 0.47625,0.13758 l -0.0212,0.19579 h -1.40229 l 0.0265,-0.19579 q 0.28046,-0.0317 0.44979,-0.13758 l 0.46038,-2.86279 q -0.17463,-0.10584 -0.45509,-0.13759 l 0.0265,-0.19579 z m 0.0423,0.22225 q -0.27517,0 -0.33338,0.0476 -0.0529,0.0423 -0.0688,0.14287 l -0.21167,1.32821 h 0.14817 q 0.48683,0 0.762,-0.24871 0.28046,-0.24871 0.28046,-0.71437 0,-0.55563 -0.57679,-0.55563 z m 1.28588,3.30729 q 0.30691,-1.95262 0.30691,-2.032 0,-0.0847 -0.0794,-0.11641 -0.0794,-0.0318 -0.25929,-0.0318 l -0.0265,-0.17463 0.73554,-0.16404 0.13229,0.13229 -0.0741,0.51329 q 0.32279,-0.64558 0.6985,-0.64558 0.19579,0 0.30162,0.127 0.11113,0.12171 0.11113,0.28046 0,0.15346 -0.0952,0.26458 -0.0953,0.11113 -0.24342,0.11113 -0.14817,0 -0.19579,-0.09 0.037,-0.09 0.037,-0.21167 0,-0.127 -0.0952,-0.127 -0.17992,0 -0.39158,0.37042 -0.20638,0.37041 -0.29634,1.02658 l -0.10054,0.76729 z m 2.9845,-0.21695 q 0.30162,0 0.53975,-0.42334 0.24341,-0.42333 0.24341,-1.02129 0,-0.60325 -0.37041,-0.60325 -0.30692,0 -0.54505,0.42862 -0.23812,0.42334 -0.23812,1.0213 0,0.59796 0.37042,0.59796 z m 0,0.254 q -0.42334,0 -0.64559,-0.23284 -0.21696,-0.23812 -0.21696,-0.67204 0,-0.67204 0.33867,-1.15888 0.33867,-0.49212 0.93663,-0.49212 0.42333,0 0.64029,0.23812 0.22225,0.23284 0.22225,0.66675 0,0.67734 -0.33867,1.16417 -0.33867,0.48684 -0.93662,0.48684 z m 1.77271,-0.0371 q 0.3122,-1.95262 0.3122,-2.032 0,-0.0847 -0.0794,-0.11641 -0.0794,-0.0318 -0.25929,-0.0318 l -0.0265,-0.17463 0.71967,-0.16404 0.13229,0.13229 -0.0529,0.48683 q 0.34396,-0.61912 0.83608,-0.61912 0.28575,0 0.43921,0.14817 0.15875,0.14816 0.15875,0.41804 0,0.10583 -0.0847,0.58208 -0.15346,0.86254 -0.15346,0.93134 0,0.0635 0.0159,0.09 0.0212,0.0212 0.10054,0.0212 0.0847,0 0.25401,-0.10054 l 0.0529,0.16933 q -0.34396,0.29634 -0.60854,0.29634 -0.17992,0 -0.23813,-0.0688 -0.0582,-0.0741 -0.0582,-0.17991 0,-0.10584 0.127,-0.83609 0.127,-0.73025 0.127,-0.86254 0,-0.13229 -0.0794,-0.22225 -0.0741,-0.0953 -0.20108,-0.0953 -0.30692,0 -0.53446,0.41275 -0.22754,0.41275 -0.31221,0.9525 l -0.13758,0.86254 z m 3.18029,-2.00554 q 0,-0.11112 -0.0794,-0.14287 -0.0741,-0.0318 -0.254,-0.0318 l -0.0265,-0.17463 0.75142,-0.16404 0.13229,0.13229 q -0.0476,0.26988 -0.17462,0.98425 -0.12171,0.71438 -0.12171,0.84138 0,0.12171 0.0741,0.21696 0.0794,0.0952 0.20638,0.0952 0.30691,0 0.53445,-0.41276 0.22755,-0.41804 0.31221,-0.95779 l 0.14288,-0.889 h 0.44979 l -0.32808,2.06375 v 0.0265 q 0,0.09 0.10583,0.09 0.10583,0 0.27517,-0.10054 l 0.0529,0.16933 q -0.34396,0.29634 -0.60325,0.29634 -0.17991,0 -0.23812,-0.0688 -0.0582,-0.0688 -0.0582,-0.14816 0,-0.0847 0.0582,-0.43392 -0.35454,0.65088 -0.85196,0.65088 -0.28575,0 -0.4445,-0.14817 -0.15346,-0.14817 -0.15346,-0.41804 0,-0.0423 0.0106,-0.13759 0.22755,-1.29646 0.22755,-1.33879 z m 2.48179,2.00554 q 0.31221,-1.95262 0.31221,-2.032 0,-0.0847 -0.0794,-0.11641 -0.0794,-0.0318 -0.2593,-0.0318 l -0.0264,-0.17463 0.71966,-0.16404 0.13229,0.13229 -0.0529,0.48683 q 0.34396,-0.61912 0.83608,-0.61912 0.28575,0 0.43921,0.14817 0.15875,0.14816 0.15875,0.41804 0,0.10583 -0.0847,0.58208 -0.15346,0.86254 -0.15346,0.93134 0,0.0635 0.0159,0.09 0.0212,0.0212 0.10054,0.0212 0.0847,0 0.254,-0.10054 l 0.0529,0.16933 q -0.34396,0.29634 -0.60854,0.29634 -0.17992,0 -0.23813,-0.0688 -0.0582,-0.0741 -0.0582,-0.17991 0,-0.10584 0.127,-0.83609 0.127,-0.73025 0.127,-0.86254 0,-0.13229 -0.0794,-0.22225 -0.0741,-0.0953 -0.20109,-0.0953 -0.30691,0 -0.53445,0.41275 -0.22755,0.41275 -0.31221,0.9525 l -0.13759,0.86254 z m 3.69888,0.0371 q -0.90488,0 -0.90488,-0.8943 0,-0.92075 0.52387,-1.40229 0.28576,-0.25929 0.6403,-0.25929 0.35454,0 0.57679,0.14287 0.22225,0.13759 0.22225,0.39688 0,0.14817 -0.0953,0.26458 -0.0952,0.11642 -0.21167,0.11642 -0.23283,0 -0.254,-0.1905 0.0847,-0.13229 0.0847,-0.23813 0,-0.254 -0.22754,-0.254 -0.32279,0 -0.55563,0.42863 -0.23283,0.42862 -0.23283,0.94721 0,0.29104 0.12171,0.48154 0.127,0.18521 0.37571,0.18521 0.13758,0 0.30691,-0.0688 0.17463,-0.0741 0.27517,-0.14817 l 0.10054,-0.0741 0.14288,0.19579 q -0.1323,0.13229 -0.40217,0.254 -0.26458,0.11642 -0.48683,0.11642 z m 1.74096,-2.04259 q 0,-0.11112 -0.0794,-0.14287 -0.0741,-0.0318 -0.254,-0.0318 l -0.0264,-0.17463 0.75141,-0.16404 0.13229,0.13229 q -0.30691,1.8415 -0.30691,1.92617 0,0.0847 0.0159,0.11112 0.0212,0.0212 0.10054,0.0212 0.0847,0 0.254,-0.10054 l 0.0529,0.16933 q -0.34396,0.29634 -0.60854,0.29634 -0.17992,0 -0.23813,-0.0688 -0.0582,-0.0688 -0.0582,-0.17991 0,-0.11642 0.13229,-0.94192 0.13229,-0.83079 0.13229,-0.85196 z m 0.65087,-1.19592 q 0,0.14288 -0.09,0.24342 -0.0847,0.10054 -0.21167,0.10054 -0.25929,0 -0.25929,-0.23812 0,-0.17463 0.0847,-0.27517 0.09,-0.10054 0.21696,-0.10054 0.127,0 0.1905,0.0635 0.0688,0.0635 0.0688,0.20637 z m 2.32305,2.67759 -0.0159,0.11642 q 0,0.0794 0.10584,0.0794 0.10583,0 0.27516,-0.10054 l 0.0529,0.16933 q -0.34396,0.29634 -0.60325,0.29634 -0.17992,0 -0.23812,-0.0688 -0.0582,-0.0688 -0.0582,-0.16404 0,-0.10054 0.0423,-0.32279 -0.37571,0.55563 -0.76729,0.55563 -0.38629,0 -0.53446,-0.24342 -0.14817,-0.24871 -0.14817,-0.68263 0,-0.43391 0.13759,-0.79375 0.13758,-0.36512 0.41804,-0.60325 0.28046,-0.24341 0.60325,-0.24341 0.32279,0 0.61912,0.13758 l 0.26988,-0.127 0.15346,0.0741 z m -1.0795,0.28575 q 0.22225,0 0.46037,-0.381 0.23813,-0.38629 0.33338,-0.97367 l 0.09,-0.55562 q -0.19579,-0.127 -0.41804,-0.127 -0.22225,0 -0.42334,0.23812 -0.19579,0.23283 -0.29104,0.53975 -0.09,0.30692 -0.09,0.59267 0,0.66675 0.33867,0.66675 z m 2.51883,-0.23813 q 0,0.18521 0.18521,0.18521 0.18521,0 0.58208,-0.26987 l 0.127,0.17991 q -0.16404,0.1323 -0.25929,0.20109 -0.0953,0.0635 -0.28575,0.14287 -0.1905,0.0741 -0.39158,0.0741 -0.20108,0 -0.31221,-0.11113 -0.10583,-0.11642 -0.10583,-0.27517 0,-0.15875 0.26458,-1.83621 h -0.381 l 0.0318,-0.17462 q 0.31221,-0.0847 0.44979,-0.21696 0.13759,-0.13758 0.27517,-0.40746 h 0.21167 l -0.0847,0.51329 h 0.84667 l -0.0582,0.28575 h -0.83609 l -0.0635,0.3863 q -0.19579,1.19062 -0.19579,1.32291 z m 1.62983,-1.52929 q 0,-0.11112 -0.0794,-0.14287 -0.0741,-0.0318 -0.254,-0.0318 l -0.0265,-0.17463 0.75142,-0.16404 0.13229,0.13229 q -0.30692,1.8415 -0.30692,1.92617 0,0.0847 0.0159,0.11112 0.0212,0.0212 0.10054,0.0212 0.0847,0 0.254,-0.10054 l 0.0529,0.16933 q -0.34395,0.29634 -0.60854,0.29634 -0.17991,0 -0.23812,-0.0688 -0.0582,-0.0688 -0.0582,-0.17991 0,-0.11642 0.13229,-0.94192 0.13229,-0.83079 0.13229,-0.85196 z m 0.65088,-1.19592 q 0,0.14288 -0.09,0.24342 -0.0847,0.10054 -0.21167,0.10054 -0.25929,0 -0.25929,-0.23812 0,-0.17463 0.0847,-0.27517 0.09,-0.10054 0.21696,-0.10054 0.127,0 0.1905,0.0635 0.0688,0.0635 0.0688,0.20637 z m 1.37583,2.98451 q 0.30163,0 0.53975,-0.42334 0.24342,-0.42333 0.24342,-1.02129 0,-0.60325 -0.37042,-0.60325 -0.30691,0 -0.54504,0.42862 -0.23812,0.42334 -0.23812,1.0213 0,0.59796 0.37041,0.59796 z m 0,0.254 q -0.42333,0 -0.64558,-0.23284 -0.21696,-0.23812 -0.21696,-0.67204 0,-0.67204 0.33867,-1.15888 0.33867,-0.49212 0.93662,-0.49212 0.42334,0 0.6403,0.23812 0.22225,0.23284 0.22225,0.66675 0,0.67734 -0.33867,1.16417 -0.33867,0.48684 -0.93663,0.48684 z m 1.77271,-0.0371 q 0.31221,-1.95262 0.31221,-2.032 0,-0.0847 -0.0794,-0.11641 -0.0794,-0.0318 -0.2593,-0.0318 l -0.0264,-0.17463 0.71966,-0.16404 0.1323,0.13229 -0.0529,0.48683 q 0.34396,-0.61912 0.83608,-0.61912 0.28575,0 0.43921,0.14817 0.15875,0.14816 0.15875,0.41804 0,0.10583 -0.0847,0.58208 -0.15345,0.86254 -0.15345,0.93134 0,0.0635 0.0159,0.09 0.0212,0.0212 0.10054,0.0212 0.0847,0 0.254,-0.10054 l 0.0529,0.16933 q -0.34396,0.29634 -0.60854,0.29634 -0.17992,0 -0.23813,-0.0688 -0.0582,-0.0741 -0.0582,-0.17991 0,-0.10584 0.127,-0.83609 0.127,-0.73025 0.127,-0.86254 0,-0.13229 -0.0794,-0.22225 -0.0741,-0.0953 -0.20108,-0.0953 -0.30692,0 -0.53446,0.41275 -0.22755,0.41275 -0.31221,0.9525 l -0.13759,0.86254 z m 3.78355,-2.28071 q -0.127,0 -0.23812,0.0847 -0.11113,0.0847 -0.11113,0.23813 0,0.15345 0.0953,0.26458 0.0952,0.11112 0.29104,0.27517 0.20109,0.15875 0.3175,0.30691 0.12171,0.14817 0.12171,0.32809 0,0.39158 -0.26987,0.60854 -0.26988,0.21167 -0.6403,0.21167 -0.36512,0 -0.6985,-0.22225 l 0.15875,-0.6403 0.21696,0.037 q -0.0106,0.10584 -0.0106,0.23813 0,0.13229 0.0952,0.23283 0.10054,0.10055 0.35454,0.10055 0.11642,0 0.23283,-0.0847 0.11642,-0.0847 0.11642,-0.26988 0,-0.09 -0.037,-0.13758 -0.0317,-0.0476 -0.0529,-0.0741 -0.0159,-0.0265 -0.0635,-0.0688 -0.0476,-0.0476 -0.0688,-0.0688 -0.0953,-0.0952 -0.19579,-0.17462 -0.0952,-0.0794 -0.17463,-0.15875 -0.0741,-0.0847 -0.14287,-0.22225 -0.0688,-0.14288 -0.0688,-0.29104 0,-0.36513 0.24871,-0.55563 0.2487,-0.19579 0.59795,-0.19579 0.34925,0 0.67734,0.17992 l -0.17463,0.59795 h -0.21166 q 0.005,-0.0688 0.005,-0.1905 0,-0.1217 -0.0582,-0.23283 -0.0582,-0.11642 -0.31221,-0.11642 z m 3.14324,2.06376 q 0.30163,0 0.53975,-0.42334 0.24342,-0.42333 0.24342,-1.02129 0,-0.60325 -0.37042,-0.60325 -0.30691,0 -0.54504,0.42862 -0.23812,0.42334 -0.23812,1.0213 0,0.59796 0.37041,0.59796 z m 0,0.254 q -0.42333,0 -0.64558,-0.23284 -0.21696,-0.23812 -0.21696,-0.67204 0,-0.67204 0.33867,-1.15888 0.33867,-0.49212 0.93662,-0.49212 0.42334,0 0.6403,0.23812 0.22225,0.23284 0.22225,0.66675 0,0.67734 -0.33867,1.16417 -0.33867,0.48684 -0.93663,0.48684 z m 1.78859,1.0107 q -0.0794,0.0423 -0.1905,0.0741 -0.10583,0.037 -0.28046,0.037 -0.17992,0 -0.32279,-0.11113 -0.14817,-0.11112 -0.14817,-0.29104 0,-0.17462 0.0952,-0.26458 0.09,-0.09 0.21696,-0.09 0.21167,0 0.254,0.1905 -0.09,0.0476 -0.09,0.16404 0,0.14817 0.14288,0.14817 0.21696,0 0.29633,-0.29104 0.0529,-0.1905 0.0847,-0.52388 0.037,-0.33337 0.0582,-0.46037 l 0.29104,-1.81505 h -0.39159 l 0.0318,-0.17991 0.40217,-0.10584 0.0476,-0.24341 q 0.1852,-0.97367 0.89958,-0.97367 0.23812,0 0.40217,0.127 0.16933,0.12171 0.16933,0.30692 0,0.18521 -0.10054,0.29104 -0.10054,0.10583 -0.22754,0.10583 -0.18521,0 -0.23813,-0.1905 0.127,-0.0952 0.127,-0.1905 0,-0.20108 -0.23283,-0.20108 -0.24342,0 -0.3175,0.26458 -0.0529,0.19579 -0.0635,0.43392 -0.0106,0.23812 -0.0159,0.29633 h 0.508 l -0.037,0.25929 h -0.51329 l -0.29633,1.87326 q -0.0794,0.51858 -0.11642,0.61912 -0.0317,0.10054 -0.0794,0.23813 -0.0476,0.14287 -0.0953,0.20108 -0.0423,0.0635 -0.11641,0.15875 -0.0741,0.10054 -0.15346,0.14287 z m 3.33374,-2.17487 q 0,0.43921 0.15346,0.65087 0.15875,0.20638 0.42863,0.20638 0.43391,0 1.03187,-0.47625 l 0.16934,0.22754 q -0.37042,0.29104 -0.66675,0.42333 -0.29105,0.1323 -0.64559,0.1323 -0.44979,0 -0.71966,-0.3175 -0.26459,-0.3228 -0.26459,-0.96309 0,-0.64558 0.18521,-1.16946 0.18521,-0.52387 0.57679,-0.84137 0.39688,-0.3175 0.95779,-0.3175 0.41275,0 0.6403,0.17991 0.22754,0.17463 0.22754,0.43392 0,0.17463 -0.09,0.3175 -0.09,0.14288 -0.22754,0.14288 -0.13759,0 -0.21696,-0.0582 -0.0741,-0.0582 -0.0794,-0.14817 0.10584,-0.11642 0.10584,-0.254 0,-0.14287 -0.10584,-0.23812 -0.10583,-0.10055 -0.30691,-0.10584 -0.55563,0.005 -0.85725,0.64029 -0.29634,0.635 -0.29634,1.53459 z m 2.69348,-2.06375 q 0,-0.22225 -0.40746,-0.26459 l 0.0265,-0.17462 0.76729,-0.0582 0.13229,0.13229 -0.26988,1.65629 q 0.35455,-0.61912 0.83609,-0.61912 0.28575,0 0.43921,0.14817 0.15875,0.14816 0.15875,0.41804 0,0.0582 -0.0265,0.22225 l -0.22225,1.28587 q 0,0.11642 0.10583,0.11642 0.10583,0 0.27517,-0.10054 l 0.0529,0.16933 q -0.34395,0.29634 -0.60325,0.29634 -0.17991,0 -0.24341,-0.0688 -0.0582,-0.0741 -0.0582,-0.17462 0,-0.10583 0.127,-0.83609 0.127,-0.73025 0.127,-0.86254 0,-0.13758 -0.0794,-0.22754 -0.0741,-0.0953 -0.20108,-0.0953 -0.27517,0 -0.49212,0.34396 -0.21167,0.33867 -0.3175,0.82021 l -0.17463,1.06362 h -0.45508 l 0.39687,-2.48708 q 0.10584,-0.64558 0.10584,-0.70379 z m 2.64583,1.18533 q 0,-0.11112 -0.0794,-0.14287 -0.0741,-0.0318 -0.254,-0.0318 l -0.0265,-0.17463 0.75142,-0.16404 0.13229,0.13229 q -0.30692,1.8415 -0.30692,1.92617 0,0.0847 0.0159,0.11112 0.0212,0.0212 0.10054,0.0212 0.0847,0 0.254,-0.10054 l 0.0529,0.16933 q -0.34396,0.29634 -0.60855,0.29634 -0.17991,0 -0.23812,-0.0688 -0.0582,-0.0688 -0.0582,-0.17991 0,-0.11642 0.13229,-0.94192 0.13229,-0.83079 0.13229,-0.85196 z m 0.65088,-1.19592 q 0,0.14288 -0.09,0.24342 -0.0847,0.10054 -0.21167,0.10054 -0.25929,0 -0.25929,-0.23812 0,-0.17463 0.0847,-0.27517 0.09,-0.10054 0.21696,-0.10054 0.127,0 0.1905,0.0635 0.0688,0.0635 0.0688,0.20637 z m 0.46566,3.20146 q 0.31221,-1.95262 0.31221,-2.032 0,-0.0847 -0.0794,-0.11641 -0.0794,-0.0318 -0.25929,-0.0318 l -0.0265,-0.17463 0.71967,-0.16404 0.13229,0.13229 -0.0529,0.48683 q 0.34395,-0.61912 0.83608,-0.61912 0.28575,0 0.43921,0.14817 0.15875,0.14816 0.15875,0.41804 0,0.10583 -0.0847,0.58208 -0.15346,0.86254 -0.15346,0.93134 0,0.0635 0.0159,0.09 0.0212,0.0212 0.10054,0.0212 0.0847,0 0.254,-0.10054 l 0.0529,0.16933 q -0.34396,0.29634 -0.60855,0.29634 -0.17991,0 -0.23812,-0.0688 -0.0582,-0.0741 -0.0582,-0.17991 0,-0.10584 0.127,-0.83609 0.127,-0.73025 0.127,-0.86254 0,-0.13229 -0.0794,-0.22225 -0.0741,-0.0953 -0.20109,-0.0953 -0.30691,0 -0.53446,0.41275 -0.22754,0.41275 -0.3122,0.9525 l -0.13759,0.86254 z m 4.82601,-1.95791 q 0,0.39158 -0.43921,0.66145 -0.43921,0.26459 -1.10596,0.26459 v 0.12171 q 0,0.33866 0.127,0.508 0.127,0.16404 0.34396,0.16404 0.29633,0 0.72496,-0.32279 l 0.15345,0.19579 q -0.16404,0.16404 -0.42862,0.28575 -0.26458,0.11642 -0.55563,0.11642 -0.4392,0 -0.64558,-0.254 -0.20108,-0.254 -0.20108,-0.61384 0,-0.762 0.35983,-1.22237 0.36513,-0.46567 0.94192,-0.46567 0.35983,0 0.53975,0.16404 0.18521,0.16404 0.18521,0.39688 z m -0.762,-0.3175 q -0.29105,0 -0.49213,0.27516 -0.19579,0.27517 -0.26458,0.70909 0.47096,0 0.762,-0.1905 0.29104,-0.1905 0.29104,-0.48684 0,-0.127 -0.0794,-0.21696 -0.0741,-0.09 -0.21695,-0.09 z m 2.10608,-0.005 q -0.127,0 -0.23812,0.0847 -0.11113,0.0847 -0.11113,0.23813 0,0.15345 0.0952,0.26458 0.0953,0.11112 0.29104,0.27517 0.20109,0.15875 0.3175,0.30691 0.12171,0.14817 0.12171,0.32809 0,0.39158 -0.26987,0.60854 -0.26988,0.21167 -0.6403,0.21167 -0.36512,0 -0.6985,-0.22225 l 0.15875,-0.6403 0.21696,0.037 q -0.0106,0.10584 -0.0106,0.23813 0,0.13229 0.0952,0.23283 0.10054,0.10055 0.35454,0.10055 0.11642,0 0.23283,-0.0847 0.11642,-0.0847 0.11642,-0.26988 0,-0.09 -0.037,-0.13758 -0.0318,-0.0476 -0.0529,-0.0741 -0.0159,-0.0265 -0.0635,-0.0688 -0.0476,-0.0476 -0.0688,-0.0688 -0.0952,-0.0952 -0.19579,-0.17462 -0.0953,-0.0794 -0.17463,-0.15875 -0.0741,-0.0847 -0.14287,-0.22225 -0.0688,-0.14288 -0.0688,-0.29104 0,-0.36513 0.24871,-0.55563 0.2487,-0.19579 0.59795,-0.19579 0.34925,0 0.67734,0.17992 l -0.17463,0.59795 h -0.21166 q 0.005,-0.0688 0.005,-0.1905 0,-0.1217 -0.0582,-0.23283 -0.0582,-0.11642 -0.31221,-0.11642 z m 3.06388,0.3228 q 0,0.39158 -0.43921,0.66145 -0.43921,0.26459 -1.10596,0.26459 v 0.12171 q 0,0.33866 0.127,0.508 0.127,0.16404 0.34396,0.16404 0.29633,0 0.72496,-0.32279 l 0.15345,0.19579 q -0.16404,0.16404 -0.42862,0.28575 -0.26459,0.11642 -0.55563,0.11642 -0.43921,0 -0.64558,-0.254 -0.20108,-0.254 -0.20108,-0.61384 0,-0.762 0.35983,-1.22237 0.36512,-0.46567 0.94192,-0.46567 0.35983,0 0.53975,0.16404 0.18521,0.16404 0.18521,0.39688 z m -0.76201,-0.3175 q -0.29104,0 -0.49212,0.27516 -0.19579,0.27517 -0.26458,0.70909 0.47095,0 0.762,-0.1905 0.29104,-0.1905 0.29104,-0.48684 0,-0.127 -0.0794,-0.21696 -0.0741,-0.09 -0.21696,-0.09 z m 2.9898,1.14829 q 0,0.43921 0.15345,0.65087 0.15875,0.20638 0.42863,0.20638 0.43392,0 1.03188,-0.47625 l 0.16933,0.22754 q -0.37042,0.29104 -0.66675,0.42333 -0.29104,0.1323 -0.64559,0.1323 -0.44979,0 -0.71966,-0.3175 -0.26459,-0.3228 -0.26459,-0.96309 0,-0.64558 0.18521,-1.16946 0.18521,-0.52387 0.57679,-0.84137 0.39688,-0.3175 0.9578,-0.3175 0.41275,0 0.64029,0.17991 0.22754,0.17463 0.22754,0.43392 0,0.17463 -0.09,0.3175 -0.09,0.14288 -0.22754,0.14288 -0.13758,0 -0.21696,-0.0582 -0.0741,-0.0582 -0.0794,-0.14817 0.10583,-0.11642 0.10583,-0.254 0,-0.14287 -0.10583,-0.23812 -0.10584,-0.10055 -0.30692,-0.10584 -0.55563,0.005 -0.85725,0.64029 -0.29633,0.635 -0.29633,1.53459 z m 2.69346,-2.06375 q 0,-0.22225 -0.40746,-0.26459 l 0.0265,-0.17462 0.76729,-0.0582 0.13229,0.13229 -0.26987,1.65629 q 0.35454,-0.61912 0.83608,-0.61912 0.28575,0 0.43921,0.14817 0.15875,0.14816 0.15875,0.41804 0,0.0582 -0.0265,0.22225 l -0.22225,1.28587 q 0,0.11642 0.10584,0.11642 0.10583,0 0.27516,-0.10054 l 0.0529,0.16933 q -0.34396,0.29634 -0.60325,0.29634 -0.17992,0 -0.24342,-0.0688 -0.0582,-0.0741 -0.0582,-0.17462 0,-0.10583 0.127,-0.83609 0.127,-0.73025 0.127,-0.86254 0,-0.13758 -0.0794,-0.22754 -0.0741,-0.0953 -0.20108,-0.0953 -0.27517,0 -0.49213,0.34396 -0.21167,0.33867 -0.3175,0.82021 l -0.17462,1.06362 h -0.45509 l 0.39688,-2.48708 q 0.10583,-0.64558 0.10583,-0.70379 z m 4.18572,2.667 -0.0159,0.11642 q 0,0.0794 0.10583,0.0794 0.10583,0 0.27517,-0.10054 l 0.0529,0.16933 q -0.34395,0.29634 -0.60325,0.29634 -0.17991,0 -0.23812,-0.0688 -0.0582,-0.0688 -0.0582,-0.16404 0,-0.10054 0.0423,-0.32279 -0.37571,0.55563 -0.76729,0.55563 -0.38629,0 -0.53446,-0.24342 -0.14816,-0.24871 -0.14816,-0.68263 0,-0.43391 0.13758,-0.79375 0.13758,-0.36512 0.41804,-0.60325 0.28046,-0.24341 0.60325,-0.24341 0.32279,0 0.61913,0.13758 l 0.26987,-0.127 0.15346,0.0741 z m -1.0795,0.28575 q 0.22225,0 0.46038,-0.381 0.23812,-0.38629 0.33337,-0.97367 l 0.09,-0.55562 q -0.19579,-0.127 -0.41804,-0.127 -0.22225,0 -0.42334,0.23812 -0.19579,0.23283 -0.29104,0.53975 -0.09,0.30692 -0.09,0.59267 0,0.66675 0.33867,0.66675 z m 2.032,0.23812 q 0.30692,-1.95262 0.30692,-2.032 0,-0.0847 -0.0794,-0.11641 -0.0794,-0.0318 -0.25929,-0.0318 l -0.0265,-0.17463 0.73554,-0.16404 0.1323,0.13229 -0.0741,0.51329 q 0.32279,-0.64558 0.6985,-0.64558 0.1958,0 0.30163,0.127 0.11112,0.12171 0.11112,0.28046 0,0.15346 -0.0952,0.26458 -0.0952,0.11113 -0.24341,0.11113 -0.14817,0 -0.19579,-0.09 0.037,-0.09 0.037,-0.21167 0,-0.127 -0.0952,-0.127 -0.17992,0 -0.39159,0.37042 -0.20637,0.37041 -0.29633,1.02658 l -0.10054,0.76729 z m 3.93171,-0.52387 -0.0159,0.11642 q 0,0.0794 0.10583,0.0794 0.10583,0 0.27517,-0.10054 l 0.0529,0.16933 q -0.34396,0.29634 -0.60325,0.29634 -0.17991,0 -0.23812,-0.0688 -0.0582,-0.0688 -0.0582,-0.16404 0,-0.10054 0.0423,-0.32279 -0.37571,0.55563 -0.76729,0.55563 -0.38629,0 -0.53446,-0.24342 -0.14817,-0.24871 -0.14817,-0.68263 0,-0.43391 0.13759,-0.79375 0.13758,-0.36512 0.41804,-0.60325 0.28046,-0.24341 0.60325,-0.24341 0.32279,0 0.61913,0.13758 l 0.26987,-0.127 0.15346,0.0741 z m -1.0795,0.28575 q 0.22225,0 0.46038,-0.381 0.23812,-0.38629 0.33337,-0.97367 l 0.09,-0.55562 q -0.19579,-0.127 -0.41804,-0.127 -0.22225,0 -0.42334,0.23812 -0.19579,0.23283 -0.29104,0.53975 -0.09,0.30692 -0.09,0.59267 0,0.66675 0.33867,0.66675 z m 2.87338,0.27517 q -0.90488,0 -0.90488,-0.8943 0,-0.92075 0.52387,-1.40229 0.28576,-0.25929 0.6403,-0.25929 0.35454,0 0.57679,0.14287 0.22225,0.13759 0.22225,0.39688 0,0.14817 -0.0952,0.26458 -0.0952,0.11642 -0.21167,0.11642 -0.23283,0 -0.254,-0.1905 0.0847,-0.13229 0.0847,-0.23813 0,-0.254 -0.22754,-0.254 -0.32279,0 -0.55563,0.42863 -0.23283,0.42862 -0.23283,0.94721 0,0.29104 0.12171,0.48154 0.127,0.18521 0.37571,0.18521 0.13758,0 0.30691,-0.0688 0.17463,-0.0741 0.27517,-0.14817 l 0.10054,-0.0741 0.14288,0.19579 q -0.1323,0.13229 -0.40217,0.254 -0.26458,0.11642 -0.48683,0.11642 z m 1.93676,-0.5133 q 0,0.18521 0.18521,0.18521 0.18521,0 0.58208,-0.26987 l 0.127,0.17991 q -0.16404,0.1323 -0.25929,0.20109 -0.0952,0.0635 -0.28575,0.14287 -0.1905,0.0741 -0.39158,0.0741 -0.20109,0 -0.31221,-0.11113 -0.10584,-0.11642 -0.10584,-0.27517 0,-0.15875 0.26459,-1.83621 h -0.381 l 0.0317,-0.17462 q 0.31221,-0.0847 0.44979,-0.21696 0.13758,-0.13758 0.27517,-0.40746 h 0.21166 l -0.0847,0.51329 h 0.84666 l -0.0582,0.28575 h -0.83608 l -0.0635,0.3863 q -0.19579,1.19062 -0.19579,1.32291 z m 3.27024,-1.48166 q 0,0.39158 -0.43921,0.66145 -0.43921,0.26459 -1.10596,0.26459 v 0.12171 q 0,0.33866 0.127,0.508 0.127,0.16404 0.34396,0.16404 0.29634,0 0.72496,-0.32279 l 0.15346,0.19579 q -0.16404,0.16404 -0.42863,0.28575 -0.26458,0.11642 -0.55562,0.11642 -0.43921,0 -0.64559,-0.254 -0.20108,-0.254 -0.20108,-0.61384 0,-0.762 0.35983,-1.22237 0.36513,-0.46567 0.94192,-0.46567 0.35984,0 0.53975,0.16404 0.18521,0.16404 0.18521,0.39688 z m -0.762,-0.3175 q -0.29104,0 -0.49213,0.27516 -0.19579,0.27517 -0.26458,0.70909 0.47096,0 0.762,-0.1905 0.29104,-0.1905 0.29104,-0.48684 0,-0.127 -0.0794,-0.21696 -0.0741,-0.09 -0.21696,-0.09 z m 1.2118,2.27541 q 0.30692,-1.95262 0.30692,-2.032 0,-0.0847 -0.0794,-0.11641 -0.0794,-0.0318 -0.2593,-0.0318 l -0.0264,-0.17463 0.73554,-0.16404 0.13229,0.13229 -0.0741,0.51329 q 0.32279,-0.64558 0.6985,-0.64558 0.19579,0 0.30162,0.127 0.11113,0.12171 0.11113,0.28046 0,0.15346 -0.0952,0.26458 -0.0952,0.11113 -0.24342,0.11113 -0.14817,0 -0.19579,-0.09 0.037,-0.09 0.037,-0.21167 0,-0.127 -0.0953,-0.127 -0.17992,0 -0.39158,0.37042 -0.20638,0.37041 -0.29634,1.02658 l -0.10054,0.76729 z m 3.07975,-2.28071 q -0.127,0 -0.23813,0.0847 -0.11112,0.0847 -0.11112,0.23813 0,0.15345 0.0953,0.26458 0.0952,0.11112 0.29104,0.27517 0.20108,0.15875 0.3175,0.30691 0.12171,0.14817 0.12171,0.32809 0,0.39158 -0.26988,0.60854 -0.26987,0.21167 -0.64029,0.21167 -0.36512,0 -0.6985,-0.22225 l 0.15875,-0.6403 0.21696,0.037 q -0.0106,0.10584 -0.0106,0.23813 0,0.13229 0.0952,0.23283 0.10054,0.10055 0.35454,0.10055 0.11641,0 0.23283,-0.0847 0.11642,-0.0847 0.11642,-0.26988 0,-0.09 -0.037,-0.13758 -0.0317,-0.0476 -0.0529,-0.0741 -0.0159,-0.0265 -0.0635,-0.0688 -0.0476,-0.0476 -0.0688,-0.0688 -0.0952,-0.0952 -0.19579,-0.17462 -0.0952,-0.0794 -0.17463,-0.15875 -0.0741,-0.0847 -0.14287,-0.22225 -0.0688,-0.14288 -0.0688,-0.29104 0,-0.36513 0.24871,-0.55563 0.24871,-0.19579 0.59796,-0.19579 0.34925,0 0.67734,0.17992 l -0.17463,0.59795 h -0.21167 q 0.005,-0.0688 0.005,-0.1905 0,-0.1217 -0.0582,-0.23283 -0.0582,-0.11642 -0.31221,-0.11642 z"
       id="text9"
       aria-label="The Etymology of Modern Pronunciations of Chinese Characters" />
    <rect
       style="fill:#000000;stroke-width:0.123576"
       id="rect9"
       width="17.060783"
       height="0.77405483"
       x="25.049129"
       y="141.42139"
       rx="0.083908983"
       ry="0.25189552" />
    <path
       d="m 137.4415,97.527374 v 0.06773 q 0,0.474134 -0.4064,1.467557 -0.4064,0.993425 -1.08373,2.167465 -0.65476,1.15147 -1.44498,2.19005 -0.36125,0.49671 -0.36125,0.74507 0,0.13546 0.13547,0.13546 0.15804,0 0.65476,-0.38382 0.51929,-0.4064 1.2192,-1.15147 0.72249,-0.76764 1.46755,-1.85138 0.54187,0.45156 1.12889,0.99343 0.6096,0.54187 1.12889,1.10631 0.13547,0.18062 0.33867,0.18062 0.22578,0 0.38382,-0.2032 0.15805,-0.2032 0.24836,-0.42898 0.0903,-0.22577 0.0903,-0.29351 0,-0.13546 -0.15804,-0.33866 -0.13547,-0.2032 -0.69992,-0.67734 -0.54186,-0.47413 -1.76106,-1.4224 0.24835,-0.4064 0.49671,-0.92569 0.24835,-0.541867 0.24835,-0.654756 0,-0.158045 -0.24835,-0.4064 -0.24836,-0.270934 -0.58703,-0.474134 -0.31608,-0.2032 -0.51928,-0.2032 -0.27094,0 -0.27094,0.361244 z m 9.59557,2.980266 q 0.74506,0.56445 1.39982,1.24178 0.65476,0.65476 1.2192,1.24178 0.18062,0.2032 0.36125,0.2032 0.22577,0 0.38382,-0.2032 0.18062,-0.22578 0.29351,-0.45155 0.11289,-0.24836 0.11289,-0.33867 0,-0.15805 -0.2032,-0.38382 -0.18062,-0.22578 -0.83538,-0.76765 -0.63218,-0.54187 -2.00942,-1.603022 0.42897,-0.654757 0.63218,-1.128891 0.2032,-0.474133 0.2032,-0.519289 0,-0.248356 -0.29352,-0.496712 -0.29351,-0.248355 -0.63217,-0.4064 -0.31609,-0.180622 -0.42898,-0.180622 -0.27094,0 -0.27094,0.4064 0,0.270934 -0.24835,1.016001 -0.24836,0.745068 -0.79023,1.806224 -0.54186,1.061161 -1.4224,2.257781 -0.31609,0.4064 -0.31609,0.67733 0,0.13547 0.13547,0.13547 0.29351,0 1.06116,-0.67733 0.76764,-0.69992 1.64818,-1.82881 z m -5.23805,3.92854 -0.0452,6.05085 q 0,0.6096 -0.13547,1.33209 -0.0226,0.0677 -0.0226,0.2032 0,0.31609 0.27093,0.49671 0.27093,0.2032 0.56445,0.27094 0.29351,0.0903 0.36124,0.0903 0.38382,0 0.38382,-0.54187 l 0.0677,-8.30863 q 1.06115,1.10631 2.2352,2.12231 1.19662,1.01601 2.32551,1.85138 1.12889,0.83538 2.05458,1.46756 0.94827,0.6096 1.55787,0.94827 0.63218,0.33867 0.79022,0.33867 0.13547,0 0.47414,-0.22578 0.33866,-0.2032 0.63218,-0.45156 0.29351,-0.24835 0.29351,-0.33867 0,-0.11288 -0.36125,-0.29351 -2.6416,-1.24178 -5.26063,-3.048 -2.59644,-1.8288 -4.74133,-4.13174 l 0.0452,-5.847648 6.77334,-0.361245 q 0.24836,-0.02258 0.4064,-0.06773 0.15805,-0.06773 0.15805,-0.225778 0,-0.135467 -0.22578,-0.383823 -0.2032,-0.248355 -0.49671,-0.451556 -0.27094,-0.225778 -0.45156,-0.225778 -0.0226,0 -0.0452,0.02258 -0.0226,0 -0.0677,0 -0.22578,0.09031 -0.47413,0.135467 -0.22578,0.02258 -0.47413,0.04516 l -5.10259,0.293511 0.0226,-2.731914 q 0,-0.361245 -0.33867,-0.541867 -0.33866,-0.180623 -0.69991,-0.248356 -0.36124,-0.06773 -0.42898,-0.06773 -0.27093,0 -0.27093,0.180622 0,0.09031 0.0903,0.248356 0.2032,0.383822 0.2032,0.92569 l -0.0226,2.302935 -5.96054,0.31609 h -0.18062 q -0.22578,0 -0.45156,-0.02258 -0.22577,-0.04516 -0.42897,-0.06773 -0.0677,-0.02258 -0.13547,-0.02258 -0.15804,0 -0.15804,0.135466 0,0.09031 0.13546,0.428979 0.13547,0.316089 0.51929,0.632178 0.0903,0.09031 0.24836,0.112889 0.15804,0.02258 0.38382,0.02258 0.11289,0 0.24836,0 0.13546,-0.02258 0.27093,-0.02258 l 5.50898,-0.270934 -0.0451,5.667027 q -1.12889,1.64818 -2.64161,3.13832 -1.51271,1.49013 -3.13831,2.73191 -1.6256,1.2192 -3.07058,2.14489 -0.74507,0.47413 -0.74507,0.74507 0,0.13546 0.2032,0.13546 0.22578,0 1.17405,-0.42897 0.97084,-0.42898 2.34809,-1.26436 1.39982,-0.83538 2.93511,-2.07716 1.53529,-1.24178 2.93512,-2.86738 z"
       id="text21-5"
       style="font-weight:bold;font-size:22.5778px;line-height:1.25;font-family:'LXGW WenKai Mono TC';-inkscape-font-specification:'LXGW WenKai Mono TC Bold';fill:#550000;stroke-width:0"
       aria-label="來" />
    <path
       d="m 166.48137,96.517339 v 0.3556 q 0,0.1524 -0.0254,0.2794 0,0.1016 -0.0254,0.2032 -0.3302,0.9398 -0.9398,1.9558 -0.6096,0.990601 -1.4224,2.133601 -0.3556,0.4572 -0.3556,0.7366 0,0.1524 0.1524,0.1524 0.1778,0 0.4572,-0.2032 0.2794,-0.1778 0.3048,-0.2032 0.9652,-0.7366 1.8796,-1.8796 0.9144,-1.168401 1.7272,-2.413001 0.0508,-0.1016 0.0508,-0.1778 0,-0.254 -0.3302,-0.5334 -0.3302,-0.2794 -0.7366,-0.4572 -0.381,-0.2032 -0.5334,-0.2032 -0.2032,0 -0.2032,0.254 z m 11.3284,4.089401 q 0,-0.127 -0.3302,-0.609601 -0.3302,-0.508 -0.8382,-1.1684 -0.4826,-0.6604 -1.016,-1.2954 -0.5334,-0.6604 -0.9652,-1.0668 -0.4318,-0.4318 -0.5842,-0.4318 -0.1778,0 -0.5334,0.254 -0.3302,0.2286 -0.3302,0.508 0,0.1778 0.2794,0.508 1.524,1.7526 2.794,3.810001 0.3302,0.4826 0.5334,0.4826 0.0762,0 0.3048,-0.127 0.254,-0.127 0.4572,-0.3556 0.2286,-0.2286 0.2286,-0.508 z m -21.3868,1.4224 h 0.127 q 0.2794,0 0.4572,-0.2286 0.2032,-0.2032 0.381,-0.6096 0.7366,-1.447801 1.6256,-3.352801 0.889,-1.9304 1.524,-3.8608 0.1524,-0.4318 0.1524,-0.6858 0,-0.3302 -0.2032,-0.3302 -0.3048,0 -0.6858,0.7112 -0.5334,0.9906 -1.1938,2.1336 -0.635,1.143 -1.3208,2.2606 -0.6604,1.0922 -1.2954,1.981201 -0.1778,0.2794 -0.4064,0.4572 -0.2286,0.1778 -0.508,0.381 -0.254,0.1778 -0.254,0.2794 0,0.2032 0.3556,0.4064 0.381,0.2032 0.7874,0.3048 0.4064,0.127 0.4572,0.1524 z m 17.0942,-10.185401 -0.2032,1.9558 -5.207,0.3048 -0.127,-1.9558 z m 0.2794,-2.9464 -0.1778,1.7272 -5.7404,0.3302 -0.127,-1.6764 z m -14.4272,3.2004 q 0.3048,0 0.5588,-0.4064 0.254,-0.4318 0.254,-0.6858 0,-0.2032 -0.3048,-0.508 -0.2794,-0.3302 -1.0414,-0.8636 -0.7366,-0.5588 -2.1082,-1.447799 -0.3302,-0.2032 -0.5334,-0.2032 -0.3302,0 -0.5842,0.3556 -0.2286,0.3302 -0.2286,0.533399 0,0.1524 0.127,0.254 0.1524,0.1016 0.3302,0.2286 0.7874,0.5334 1.4986,1.143 0.7366,0.5842 1.4478,1.27 0.3556,0.3302 0.5842,0.3302 z m 10.7442,3.175 0.0508,6.705601 q -1.0922,-0.254 -2.3114,-0.889 -0.4572,-0.2286 -0.6858,-0.2286 -0.1778,0 -0.1778,0.127 0,0.2286 0.381,0.6096 0.9906,0.9906 1.9558,1.6002 0.9652,0.6096 1.3208,0.6096 0.3048,0 0.6858,-0.254 0.4064,-0.254 0.4064,-0.8382 0,-0.2032 -0.0254,-0.4318 -0.0254,-0.2286 -0.0254,-0.4826 l -0.0762,-6.629401 3.0226,-0.1524 q 0.3556,-0.0254 0.5588,-0.0508 0.2032,-0.0508 0.2032,-0.2286 0,-0.254 -0.635,-0.9906 l 0.6096,-4.826 q 0.0254,-0.127 0.1016,-0.253999 0.0762,-0.127 0.0762,-0.2794 0,-0.3556 -0.381,-0.6096 -0.381,-0.254 -0.635,-0.254 -0.0762,0 -0.1524,0.0254 -0.0508,0 -0.127,0 l -3.8354,0.254 q 0.381,-0.5842 0.6858,-1.1176 0.3048,-0.5334 0.5588,-1.0922 0.0254,-0.0254 0.0254,-0.127 0,-0.1778 -0.2794,-0.4064 -0.2794,-0.2286 -0.6604,-0.4064 -0.3556,-0.1778 -0.5842,-0.1778 -0.2032,0 -0.2032,0.3048 v 0.1524 q 0,0.1778 -0.254,1.016 -0.2286,0.8382 -0.889,1.9558 l -1.0922,0.0762 q -1.2954,-0.4318 -1.651,-0.4318 -0.2286,0 -0.2286,0.1524 0,0.1016 0.0508,0.2286 0.0762,0.127 0.1778,0.3048 0.127,0.254 0.1778,0.558799 0.0762,0.3048 0.1016,0.762 l 0.381,4.4704 q 0.0254,0.1016 0.0254,0.2032 0,0.1016 0,0.2032 0,0.1778 -0.0254,0.3302 0,0.1524 -0.0254,0.3048 0,0.0508 -0.0254,0.127 0,0.0508 0,0.1016 0,0.4318 0.4572,0.6858 0.4572,0.254 0.7366,0.254 0.3556,0 0.3556,-0.4826 v -0.127 l -0.0254,-0.254 z m -5.2832,-10.591799 11.2268,-0.7112 q 0.7366,-0.0508 0.7366,-0.381 0,-0.127 -0.2286,-0.381 -0.2032,-0.2794 -0.5334,-0.508 -0.3048,-0.2286 -0.6096,-0.2286 -0.0762,0 -0.1524,0.0254 -0.0762,0 -0.1778,0.0254 -0.4318,0.127 -0.9398,0.1524 l -9.3218,0.635 q -1.397,-0.6096 -1.7526,-0.6096 -0.2032,0 -0.2032,0.1778 0,0.0762 0.0254,0.1778 0.0508,0.0762 0.0762,0.2032 0.1778,0.4572 0.2032,0.9144 0.0508,0.4318 0.0762,0.9652 v 1.0414 q 0,1.6256 -0.127,3.581399 -0.1016,1.9558 -0.4826,4.0894 -0.3556,2.1082 -1.0668,4.2418 -0.7112,2.133601 -1.905,4.114801 -0.3048,0.4826 -0.3048,0.762 0,0.1778 0.1524,0.1778 0.3556,0 1.016,-0.8128 0.6604,-0.7874 1.4224,-2.2352 0.7874,-1.447801 1.4478,-3.403601 0.6604,-1.9812 0.9906,-4.2926 0.254,-1.7018 0.3302,-3.784599 0.1016,-2.0828 0.1016,-3.937 z m -4.0386,2.286 q 0.1524,0 0.3556,-0.2032 0.2032,-0.2286 0.3556,-0.4826 0.1778,-0.254 0.1778,-0.4064 0,-0.1524 -0.3302,-0.5334 -0.3302,-0.4064 -0.8382,-0.889 -0.508,-0.508 -1.0668,-0.9652 -0.5334,-0.4572 -0.9652,-0.7366 -0.4318,-0.3048 -0.6096,-0.3048 -0.3048,0 -0.5588,0.3048 -0.254,0.3048 -0.254,0.508 0,0.2032 0.3556,0.508 0.7366,0.6096 1.3462,1.2446 0.635,0.6096 1.4732,1.5748 0.3048,0.381 0.5588,0.381 z"
       id="text21-4"
       style="font-weight:bold;font-size:25.4px;line-height:1.25;font-family:'LXGW WenKai Mono TC';-inkscape-font-specification:'LXGW WenKai Mono TC Bold';fill:#550000;stroke-width:0"
       aria-label="源" />
  </g>
</svg>
